<svg width="56" height="56" viewBox="0 0 56 56" fill="none" xmlns="http://www.w3.org/2000/svg">
<path d="M55.1555 34.7736C51.4157 49.7735 36.2233 58.9024 21.2215 55.1618C6.22596 51.422 -2.90281 36.2287 0.838643 21.2296C4.5766 6.22783 19.7691 -2.90183 34.7664 0.83789C49.7672 4.5776 58.8952 19.7727 55.1555 34.7736Z" fill="#F7931A"/>
<path fill-rule="evenodd" clip-rule="evenodd" d="M40.342 24.0104C40.8994 20.2846 38.0626 18.2818 34.1838 16.9457L35.442 11.8987L32.3699 11.1331L31.1449 16.047C30.3373 15.8458 29.5078 15.6559 28.6835 15.4678L29.9173 10.5215L26.8471 9.75586L25.5879 14.8011C24.9194 14.6488 24.2632 14.4983 23.6262 14.3399L23.6297 14.3242L19.3929 13.2663L18.5757 16.5475C18.5757 16.5475 20.8551 17.0699 20.8069 17.1023C22.0512 17.4129 22.2761 18.2363 22.2384 18.889L20.8052 24.6386C20.8909 24.6605 21.0021 24.692 21.1246 24.741L21.0204 24.7149H21.0201C20.949 24.6971 20.8752 24.6785 20.7999 24.6605L18.7909 32.7147C18.6387 33.0927 18.2528 33.6597 17.3831 33.4445C17.4137 33.4891 15.1501 32.8871 15.1501 32.8871L13.625 36.4037L17.6228 37.4003C18.0692 37.5122 18.5104 37.6271 18.9469 37.7411C19.2375 37.8168 19.5261 37.8921 19.8129 37.9656L18.5416 43.0703L21.6102 43.836L22.8693 38.7855C23.7076 39.013 24.5213 39.223 25.3176 39.4207L24.0628 44.4476L27.1349 45.213L28.4061 40.1181C33.6448 41.1095 37.584 40.7096 39.2421 35.9715C40.5783 32.1565 39.1756 29.9558 36.4194 28.5208C38.4266 28.058 39.9386 26.7378 40.342 24.0104ZM33.3228 33.8531C32.4518 37.3533 26.9732 35.9062 24.4665 35.2442L24.4664 35.244C24.241 35.1845 24.0395 35.1313 23.8677 35.0886L25.5545 28.3259C25.7638 28.378 26.0197 28.4354 26.3093 28.5004C28.9021 29.0822 34.2153 30.2745 33.3228 33.8531ZM26.8303 25.3621C28.9203 25.9198 33.4789 27.1364 34.273 23.9553C35.084 20.7013 30.6531 19.7206 28.4893 19.2415C28.2458 19.1876 28.0311 19.1401 27.8558 19.0964L26.3263 25.2301C26.4708 25.266 26.6404 25.3113 26.8303 25.3621Z" fill="white"/>
</svg>
