<svg width="123" height="34" viewBox="0 0 123 34" fill="none" xmlns="http://www.w3.org/2000/svg">
<path d="M122.5 29.7923C122.5 31.5645 120.936 33 119.001 33H4.50332C2.5696 33 1 31.5645 1 29.7923V4.21189C1 2.44054 2.5696 1 4.50332 1H119C120.936 1 122.499 2.44054 122.499 4.21189L122.5 29.7923Z" fill="#222245" stroke="#A6A6A6" stroke-width="0.5"/>
<path d="M35.3122 16.4805C35.2916 14.4659 37.1861 13.4857 37.2727 13.4401C36.1998 12.063 34.5367 11.8749 33.9523 11.8599C32.5556 11.7305 31.2007 12.5956 30.4892 12.5956C29.7635 12.5956 28.6678 11.8724 27.487 11.8936C25.9674 11.9143 24.5458 12.6887 23.7661 13.8914C22.157 16.3436 23.3571 19.9472 24.8987 21.9294C25.6698 22.9001 26.5709 23.984 27.7504 23.9459C28.9043 23.904 29.3353 23.2983 30.7278 23.2983C32.1075 23.2983 32.5123 23.9459 33.7152 23.9215C34.9536 23.904 35.7332 22.9464 36.4774 21.9669C37.3686 20.8542 37.7265 19.7584 37.7407 19.7022C37.7116 19.6934 35.3356 18.8952 35.3122 16.4805Z" fill="white"/>
<path d="M33.0399 10.556C33.6605 9.87275 34.0851 8.94325 33.9672 8C33.069 8.035 31.9456 8.54695 31.2987 9.21516C30.7264 9.80399 30.2151 10.7691 30.3472 11.6767C31.3562 11.743 32.3923 11.2286 33.0399 10.556Z" fill="white"/>
<path d="M52.016 23.8059H50.4033L49.52 21.3625H46.4496L45.6081 23.8059H44.0381L47.0801 15.4873H48.959L52.016 23.8059ZM49.2537 20.3373L48.4549 18.1652C48.3703 17.9433 48.212 17.4207 47.9784 16.5981H47.95C47.857 16.9519 47.7071 17.4744 47.5012 18.1652L46.7165 20.3373H49.2537Z" fill="white"/>
<path d="M59.8373 20.7321C59.8373 21.7523 59.5242 22.5586 58.8979 23.1506C58.3369 23.6775 57.6403 23.9407 56.8088 23.9407C55.9112 23.9407 55.2665 23.6569 54.8738 23.0893H54.8454V26.2491H53.3315V19.7814C53.3315 19.14 53.3123 18.4818 53.2754 17.8067H54.6068L54.6913 18.7575H54.7197C55.2246 18.0411 55.9908 17.6836 57.019 17.6836C57.8228 17.6836 58.4938 17.963 59.0307 18.5225C59.5689 19.0825 59.8373 19.8189 59.8373 20.7321ZM58.295 20.7809C58.295 20.1971 58.1459 19.7157 57.8462 19.3369C57.5189 18.9419 57.0793 18.7444 56.5283 18.7444C56.1548 18.7444 55.8154 18.8544 55.5122 19.0713C55.2083 19.2901 55.0094 19.5757 54.9164 19.9295C54.8695 20.0945 54.8461 20.2296 54.8461 20.3358V21.336C54.8461 21.7723 54.9981 22.1404 55.302 22.4411C55.6059 22.7418 56.0007 22.8918 56.4864 22.8918C57.0566 22.8918 57.5004 22.698 57.8178 22.3117C58.136 21.9248 58.295 21.4147 58.295 20.7809Z" fill="white"/>
<path d="M67.6687 20.7321C67.6687 21.7523 67.3555 22.5586 66.7285 23.1506C66.1682 23.6775 65.4716 23.9407 64.6401 23.9407C63.7426 23.9407 63.0978 23.6569 62.7058 23.0893H62.6774V26.2491H61.1635V19.7814C61.1635 19.14 61.1443 18.4818 61.1074 17.8067H62.4388L62.5233 18.7575H62.5517C63.0559 18.0411 63.8221 17.6836 64.851 17.6836C65.6541 17.6836 66.3252 17.963 66.8634 18.5225C67.3995 19.0825 67.6687 19.8189 67.6687 20.7321ZM66.1263 20.7809C66.1263 20.1971 65.9765 19.7157 65.6769 19.3369C65.3495 18.9419 64.9114 18.7444 64.3596 18.7444C63.9854 18.7444 63.6467 18.8544 63.3428 19.0713C63.0389 19.2901 62.8408 19.5757 62.7477 19.9295C62.7016 20.0945 62.6774 20.2296 62.6774 20.3358V21.336C62.6774 21.7723 62.8294 22.1404 63.1319 22.4411C63.4358 22.7411 63.8306 22.8918 64.3177 22.8918C64.8879 22.8918 65.3318 22.698 65.6492 22.3117C65.9673 21.9248 66.1263 21.4147 66.1263 20.7809Z" fill="white"/>
<path d="M76.4387 21.4729C76.4387 22.1805 76.1596 22.7562 75.5994 23.2007C74.9837 23.6863 74.1266 23.9289 73.0253 23.9289C72.0084 23.9289 71.1932 23.7564 70.5762 23.4107L70.927 22.2999C71.5916 22.6537 72.3209 22.8312 73.1155 22.8312C73.6857 22.8312 74.1295 22.7175 74.4483 22.4912C74.7657 22.2649 74.9241 21.9611 74.9241 21.5823C74.9241 21.2448 74.7934 20.9604 74.5314 20.7297C74.2708 20.499 73.8355 20.2846 73.2277 20.0865C71.5731 19.5433 70.7466 18.7476 70.7466 17.7012C70.7466 17.0173 71.0363 16.4566 71.6165 16.0203C72.1945 15.5834 72.9656 15.3652 73.9299 15.3652C74.7898 15.3652 75.5042 15.4971 76.0744 15.7603L75.6959 16.8467C75.1634 16.5916 74.5612 16.4641 73.8873 16.4641C73.3548 16.4641 72.9386 16.5798 72.6404 16.8098C72.3883 17.0155 72.2619 17.2661 72.2619 17.563C72.2619 17.8918 72.4061 18.1637 72.6958 18.3775C72.9479 18.575 73.4059 18.7888 74.0705 19.0195C74.8836 19.3076 75.4808 19.6446 75.8649 20.0309C76.2477 20.4159 76.4387 20.8978 76.4387 21.4729Z" fill="white"/>
<path d="M81.4427 18.8062H79.774V21.7185C79.774 22.4592 80.068 22.8293 80.6574 22.8293C80.9279 22.8293 81.1523 22.8086 81.3298 22.7674L81.3717 23.7794C81.0735 23.8775 80.6808 23.9269 80.1944 23.9269C79.5965 23.9269 79.1293 23.7663 78.792 23.4456C78.4561 23.1243 78.2871 22.5855 78.2871 21.8285V18.805H77.293V17.8048H78.2871V16.7066L79.774 16.3115V17.8048H81.4427V18.8062Z" fill="white"/>
<path d="M88.972 20.7578C88.972 21.6798 88.6723 22.4368 88.0744 23.0288C87.4474 23.6382 86.6152 23.942 85.5778 23.942C84.578 23.942 83.7819 23.6501 83.1883 23.0663C82.5947 22.4824 82.2979 21.7455 82.2979 20.8572C82.2979 19.9277 82.6032 19.1664 83.216 18.5744C83.8274 17.9818 84.6525 17.6855 85.69 17.6855C86.6898 17.6855 87.4943 17.9775 88.1014 18.5619C88.6823 19.1289 88.972 19.8608 88.972 20.7578ZM87.4013 20.801C87.4013 20.2478 87.2671 19.7733 86.9951 19.3776C86.6777 18.8988 86.2239 18.6601 85.636 18.6601C85.0274 18.6601 84.5652 18.8995 84.2478 19.3776C83.9758 19.774 83.8416 20.2559 83.8416 20.826C83.8416 21.3792 83.9758 21.8536 84.2478 22.2487C84.5751 22.7275 85.0324 22.9662 85.6225 22.9662C86.2005 22.9662 86.6543 22.7225 86.9816 22.2362C87.2607 21.833 87.4013 21.3535 87.4013 20.801Z" fill="white"/>
<path d="M93.8927 18.9788C93.7429 18.9544 93.5831 18.9419 93.4155 18.9419C92.8829 18.9419 92.4711 19.1188 92.1814 19.4732C91.9293 19.7857 91.8029 20.1808 91.8029 20.6577V23.805H90.2897L90.3039 19.6957C90.3039 19.0044 90.2847 18.3749 90.2471 17.8074H91.5657L91.6211 18.955H91.663C91.8228 18.5606 92.0749 18.243 92.42 18.0049C92.7573 17.7905 93.1215 17.6836 93.5142 17.6836C93.6541 17.6836 93.7805 17.6923 93.8927 17.708V18.9788Z" fill="white"/>
<path d="M100.665 20.5246C100.665 20.7633 100.647 20.9646 100.61 21.129H96.0679C96.0857 21.7216 96.3051 22.1748 96.7269 22.4873C97.1096 22.7667 97.6045 22.9068 98.2124 22.9068C98.8848 22.9068 99.4983 22.8124 100.05 22.623L100.287 23.5481C99.6425 23.7956 98.8813 23.9188 98.0029 23.9188C96.9463 23.9188 96.1169 23.645 95.5133 23.098C94.9112 22.5511 94.6094 21.8166 94.6094 20.8952C94.6094 19.9907 94.8899 19.2375 95.4515 18.6368C96.0395 17.9955 96.8341 17.6748 97.8339 17.6748C98.8159 17.6748 99.5594 17.9955 100.064 18.6368C100.464 19.1463 100.665 19.7763 100.665 20.5246ZM99.2214 20.1789C99.2314 19.7838 99.1326 19.4425 98.9274 19.1544C98.6654 18.7837 98.2628 18.5987 97.721 18.5987C97.2261 18.5987 96.8234 18.7793 96.516 19.1419C96.2639 19.43 96.1141 19.7757 96.0679 20.1783H99.2214V20.1789Z" fill="white"/>
<path d="M48.7457 10.3687C48.7457 11.1045 48.4951 11.6583 47.9944 12.0302C47.5308 12.3734 46.8718 12.5453 46.0183 12.5453C45.595 12.5453 45.2329 12.529 44.9297 12.4965V8.47661C45.3252 8.42036 45.7513 8.3916 46.2114 8.3916C47.0245 8.3916 47.6373 8.54725 48.0505 8.85854C48.5135 9.21046 48.7457 9.71365 48.7457 10.3687ZM47.9611 10.3869C47.9611 9.90993 47.8176 9.54425 47.5308 9.28922C47.2439 9.03481 46.8249 8.9073 46.2732 8.9073C46.0389 8.9073 45.8393 8.92105 45.6739 8.9498V12.0058C45.7655 12.0183 45.933 12.024 46.1766 12.024C46.7461 12.024 47.1856 11.8846 47.4952 11.6058C47.8048 11.327 47.9611 10.9207 47.9611 10.3869Z" fill="white"/>
<path d="M52.9054 11.0129C52.9054 11.466 52.7585 11.8373 52.4645 12.1286C52.1563 12.428 51.748 12.5774 51.2382 12.5774C50.7468 12.5774 50.3555 12.4343 50.0637 12.1468C49.7725 11.8598 49.627 11.4979 49.627 11.0616C49.627 10.6053 49.7768 10.2309 50.0779 9.94021C50.3789 9.64955 50.7837 9.50391 51.2935 9.50391C51.7849 9.50391 52.1797 9.64705 52.4787 9.93396C52.7627 10.2128 52.9054 10.5728 52.9054 11.0129ZM52.1336 11.0341C52.1336 10.7622 52.0668 10.529 51.934 10.3346C51.7778 10.0996 51.5556 9.98209 51.2666 9.98209C50.9676 9.98209 50.7404 10.0996 50.5842 10.3346C50.4507 10.529 50.3846 10.7659 50.3846 11.046C50.3846 11.3179 50.4514 11.5511 50.5842 11.7455C50.7453 11.9805 50.9697 12.098 51.2595 12.098C51.5435 12.098 51.7665 11.9786 51.9269 11.7392C52.0647 11.5411 52.1336 11.306 52.1336 11.0341Z" fill="white"/>
<path d="M58.4798 9.56348L57.4324 12.5101H56.7507L56.3169 11.2306C56.2068 10.9112 56.1173 10.5936 56.0477 10.2786H56.0342C55.9696 10.6024 55.8802 10.9193 55.7651 11.2306L55.3043 12.5101H54.6148L53.6299 9.56348H54.3946L54.7731 10.9643C54.8647 11.2956 54.94 11.6112 55.0004 11.91H55.0138C55.0692 11.6638 55.1608 11.35 55.2901 10.9705L55.7651 9.5641H56.3715L56.8267 10.9405C56.9368 11.2762 57.0262 11.5994 57.0951 11.9107H57.1157C57.1661 11.6075 57.2421 11.2843 57.3429 10.9405L57.7491 9.5641H58.4798V9.56348Z" fill="white"/>
<path d="M62.3442 12.5105H61.6001V10.8228C61.6001 10.3027 61.3757 10.0427 60.9255 10.0427C60.7046 10.0427 60.5264 10.1139 60.3879 10.2571C60.2509 10.4002 60.1813 10.569 60.1813 10.7621V12.5099H59.4371V10.4058C59.4371 10.147 59.4279 9.86638 59.4102 9.56259H60.0641L60.0989 10.0233H60.1195C60.2062 9.88013 60.3354 9.76199 60.5051 9.6676C60.7068 9.55759 60.9326 9.50195 61.1797 9.50195C61.4921 9.50195 61.752 9.59072 61.9587 9.76886C62.2157 9.98702 62.3442 10.3127 62.3442 10.7452V12.5105Z" fill="white"/>
<path d="M64.395 12.5096H63.6514V8.21094H64.395V12.5096Z" fill="white"/>
<path d="M68.7756 11.0129C68.7756 11.466 68.6286 11.8373 68.3346 12.1286C68.0264 12.428 67.6174 12.5774 67.1083 12.5774C66.6162 12.5774 66.2249 12.4343 65.9338 12.1468C65.6426 11.8598 65.4971 11.4979 65.4971 11.0616C65.4971 10.6053 65.6469 10.2309 65.948 9.94021C66.2491 9.64955 66.6538 9.50391 67.1629 9.50391C67.655 9.50391 68.0491 9.64705 68.3488 9.93396C68.6328 10.2128 68.7756 10.5728 68.7756 11.0129ZM68.003 11.0341C68.003 10.7622 67.9362 10.529 67.8034 10.3346C67.6479 10.0996 67.425 9.98209 67.1367 9.98209C66.837 9.98209 66.6098 10.0996 66.4543 10.3346C66.3208 10.529 66.2547 10.7659 66.2547 11.046C66.2547 11.3179 66.3215 11.5511 66.4543 11.7455C66.6155 11.9805 66.8399 12.098 67.1296 12.098C67.4136 12.098 67.6359 11.9786 67.7963 11.7392C67.9348 11.5411 68.003 11.306 68.003 11.0341Z" fill="white"/>
<path d="M72.3779 12.5106H71.7097L71.6543 12.1711H71.6338C71.4051 12.4418 71.0792 12.5774 70.656 12.5774C70.34 12.5774 70.0843 12.4881 69.8919 12.3105C69.7172 12.1493 69.6299 11.9486 69.6299 11.7104C69.6299 11.3504 69.8003 11.076 70.1433 10.886C70.4855 10.6959 70.967 10.6028 71.5869 10.6072V10.5522C71.5869 10.164 71.3554 9.97022 70.8917 9.97022C70.5615 9.97022 70.2704 10.0434 70.019 10.1884L69.8678 9.75831C70.1788 9.58892 70.5629 9.50391 71.016 9.50391C71.8908 9.50391 72.3296 9.91021 72.3296 10.7228V11.808C72.3296 12.1024 72.346 12.3368 72.3779 12.5106ZM71.6054 11.4979V11.0435C70.7845 11.031 70.3741 11.2291 70.3741 11.6373C70.3741 11.7911 70.4209 11.9061 70.5168 11.983C70.6126 12.0599 70.7348 12.098 70.8804 12.098C71.0437 12.098 71.1963 12.0524 71.3355 11.9617C71.4754 11.8705 71.5613 11.7548 71.5933 11.6129C71.6011 11.5811 71.6054 11.5423 71.6054 11.4979Z" fill="white"/>
<path d="M76.6017 12.5096H75.9413L75.9065 12.0364H75.8859C75.675 12.3965 75.3157 12.5765 74.8108 12.5765C74.4075 12.5765 74.0716 12.4371 73.8053 12.1583C73.539 11.8796 73.4062 11.5176 73.4062 11.0732C73.4062 10.5963 73.5504 10.21 73.8401 9.91491C74.1206 9.63988 74.4643 9.50236 74.8733 9.50236C75.3228 9.50236 75.6374 9.6355 75.8163 9.90241H75.8305V8.21094H76.5754V11.7158C76.5754 12.0027 76.5839 12.2671 76.6017 12.5096ZM75.8305 11.267V10.7757C75.8305 10.6906 75.8234 10.6219 75.8099 10.5694C75.768 10.4119 75.6778 10.2793 75.5408 10.1724C75.4023 10.0656 75.2354 10.0118 75.043 10.0118C74.7654 10.0118 74.5481 10.1087 74.3883 10.3031C74.23 10.4975 74.1497 10.7456 74.1497 11.0488C74.1497 11.3401 74.2257 11.5764 74.3784 11.7583C74.5396 11.9521 74.7568 12.0489 75.0288 12.0489C75.2731 12.0489 75.4684 11.9683 75.6168 11.8064C75.7602 11.657 75.8305 11.477 75.8305 11.267Z" fill="white"/>
<path d="M82.966 11.0129C82.966 11.466 82.819 11.8373 82.525 12.1286C82.2168 12.428 81.8093 12.5774 81.2987 12.5774C80.808 12.5774 80.4168 12.4343 80.1242 12.1468C79.8331 11.8598 79.6875 11.4979 79.6875 11.0616C79.6875 10.6053 79.8373 10.2309 80.1384 9.94021C80.4395 9.64955 80.8442 9.50391 81.3548 9.50391C81.8455 9.50391 82.241 9.64705 82.5392 9.93396C82.8233 10.2128 82.966 10.5728 82.966 11.0129ZM82.1948 11.0341C82.1948 10.7622 82.1281 10.529 81.9953 10.3346C81.8384 10.0996 81.6168 9.98209 81.3271 9.98209C81.0289 9.98209 80.8016 10.0996 80.6447 10.3346C80.5112 10.529 80.4452 10.7659 80.4452 11.046C80.4452 11.3179 80.5119 11.5511 80.6447 11.7455C80.8059 11.9805 81.0303 12.098 81.32 12.098C81.604 12.098 81.8277 11.9786 81.9882 11.7392C82.1252 11.5411 82.1948 11.306 82.1948 11.0341Z" fill="white"/>
<path d="M86.9754 12.5105H86.2319V10.8228C86.2319 10.3027 86.0075 10.0427 85.5566 10.0427C85.3358 10.0427 85.1575 10.1139 85.0198 10.2571C84.882 10.4002 84.8131 10.569 84.8131 10.7621V12.5099H84.0683V10.4058C84.0683 10.147 84.0597 9.86638 84.042 9.56259H84.6953L84.7301 10.0233H84.7507C84.838 9.88013 84.9672 9.76199 85.1362 9.6676C85.3386 9.55759 85.5637 9.50195 85.8115 9.50195C86.1233 9.50195 86.3832 9.59072 86.5898 9.76886C86.8476 9.98702 86.9754 10.3127 86.9754 10.7452V12.5105Z" fill="white"/>
<path d="M91.9816 10.0527H91.1619V11.4841C91.1619 11.8479 91.3075 12.0298 91.5959 12.0298C91.7295 12.0298 91.8403 12.0198 91.9276 11.9992L91.9468 12.4961C91.7998 12.5449 91.6066 12.5692 91.3686 12.5692C91.0746 12.5692 90.8459 12.4905 90.6804 12.333C90.5142 12.1754 90.4318 11.9104 90.4318 11.5385V10.0527H89.9424V9.56197H90.4318V9.0219L91.1612 8.82812V9.56135H91.9809V10.0527H91.9816Z" fill="white"/>
<path d="M95.9237 12.5096H95.1788V10.8344C95.1788 10.3062 94.9544 10.0418 94.505 10.0418C94.1599 10.0418 93.9241 10.195 93.7949 10.5012C93.7729 10.5656 93.7601 10.6444 93.7601 10.7369V12.509H93.0166V8.21094H93.7601V9.9868H93.7743C94.0086 9.66363 94.3445 9.50236 94.7798 9.50236C95.0879 9.50236 95.3429 9.59112 95.5452 9.76927C95.7973 9.99117 95.9237 10.3212 95.9237 10.7575V12.5096Z" fill="white"/>
<path d="M99.9877 10.8976C99.9877 11.0151 99.9778 11.1139 99.96 11.1945H97.7282C97.7381 11.4858 97.8447 11.7077 98.0513 11.8615C98.2402 11.999 98.4837 12.0678 98.782 12.0678C99.1122 12.0678 99.4132 12.0215 99.6845 11.9284L99.801 12.3834C99.4835 12.5047 99.11 12.5653 98.6776 12.5653C98.1592 12.5653 97.7509 12.4309 97.4555 12.1622C97.1587 11.8934 97.0117 11.5327 97.0117 11.0801C97.0117 10.6357 97.1488 10.2656 97.425 9.97061C97.7133 9.65557 98.1031 9.49805 98.5952 9.49805C99.0767 9.49805 99.4424 9.65557 99.6895 9.97061C99.889 10.2206 99.9877 10.5301 99.9877 10.8976ZM99.2776 10.7282C99.2833 10.5338 99.2343 10.3663 99.1335 10.225C99.0042 10.0431 98.8075 9.95186 98.5413 9.95186C98.2984 9.95186 98.1003 10.0406 97.949 10.2188C97.8255 10.3607 97.7523 10.5301 97.7282 10.7282H99.2776Z" fill="white"/>
</svg>
