<svg width="78" height="19" viewBox="0 0 78 19" fill="none" xmlns="http://www.w3.org/2000/svg">
<path d="M12.3122 8.4805C12.2916 6.46586 14.1861 5.48573 14.2727 5.4401C13.1998 4.06304 11.5367 3.87489 10.9523 3.85989C9.55558 3.7305 8.20073 4.59561 7.48922 4.59561C6.76351 4.59561 5.66784 3.87239 4.48695 3.89364C2.96736 3.91427 1.54576 4.68875 0.766079 5.89141C-0.842987 8.34361 0.357067 11.9472 1.89867 13.9294C2.66983 14.9001 3.57094 15.984 4.7504 15.9459C5.9043 15.904 6.33532 15.2983 7.72781 15.2983C9.10752 15.2983 9.51227 15.9459 10.7152 15.9215C11.9536 15.904 12.7332 14.9464 13.4774 13.9669C14.3686 12.8542 14.7265 11.7584 14.7407 11.7022C14.7116 11.6934 12.3356 10.8952 12.3122 8.4805Z" fill="white"/>
<path d="M10.0399 2.55596C10.6605 1.87275 11.0851 0.94325 10.9672 0C10.069 0.0350047 8.94561 0.546948 8.29872 1.21516C7.72639 1.80399 7.21512 2.76912 7.3472 3.67674C8.35624 3.743 9.39226 3.22855 10.0399 2.55596Z" fill="white"/>
<path d="M29.016 15.8059H27.4033L26.52 13.3625H23.4496L22.6081 15.8059H21.0381L24.0801 7.4873H25.959L29.016 15.8059ZM26.2537 12.3373L25.4549 10.1652C25.3703 9.94326 25.212 9.42069 24.9784 8.59808H24.95C24.857 8.95188 24.7071 9.47444 24.5012 10.1652L23.7165 12.3373H26.2537Z" fill="white"/>
<path d="M36.8373 12.7321C36.8373 13.7523 36.5242 14.5586 35.8979 15.1506C35.3369 15.6775 34.6403 15.9407 33.8088 15.9407C32.9112 15.9407 32.2665 15.6569 31.8738 15.0893H31.8454V18.2491H30.3315V11.7814C30.3315 11.14 30.3123 10.4818 30.2754 9.80674H31.6068L31.6913 10.7575H31.7197C32.2246 10.0411 32.9908 9.68359 34.019 9.68359C34.8228 9.68359 35.4938 9.96301 36.0307 10.5225C36.5689 11.0825 36.8373 11.8189 36.8373 12.7321ZM35.295 12.7809C35.295 12.1971 35.1459 11.7157 34.8462 11.3369C34.5189 10.9419 34.0793 10.7444 33.5283 10.7444C33.1548 10.7444 32.8154 10.8544 32.5122 11.0713C32.2083 11.2901 32.0094 11.5757 31.9164 11.9295C31.8695 12.0945 31.8461 12.2296 31.8461 12.3358V13.336C31.8461 13.7723 31.9981 14.1404 32.302 14.4411C32.6059 14.7418 33.0007 14.8918 33.4864 14.8918C34.0566 14.8918 34.5004 14.698 34.8178 14.3117C35.136 13.9248 35.295 13.4147 35.295 12.7809Z" fill="white"/>
<path d="M44.6687 12.7321C44.6687 13.7523 44.3555 14.5586 43.7285 15.1506C43.1682 15.6775 42.4716 15.9407 41.6401 15.9407C40.7426 15.9407 40.0978 15.6569 39.7058 15.0893H39.6774V18.2491H38.1635V11.7814C38.1635 11.14 38.1443 10.4818 38.1074 9.80674H39.4388L39.5233 10.7575H39.5517C40.0559 10.0411 40.8221 9.68359 41.851 9.68359C42.6541 9.68359 43.3252 9.96301 43.8634 10.5225C44.3995 11.0825 44.6687 11.8189 44.6687 12.7321ZM43.1263 12.7809C43.1263 12.1971 42.9765 11.7157 42.6769 11.3369C42.3495 10.9419 41.9114 10.7444 41.3596 10.7444C40.9854 10.7444 40.6467 10.8544 40.3428 11.0713C40.0389 11.2901 39.8408 11.5757 39.7477 11.9295C39.7016 12.0945 39.6774 12.2296 39.6774 12.3358V13.336C39.6774 13.7723 39.8294 14.1404 40.1319 14.4411C40.4358 14.7411 40.8306 14.8918 41.3177 14.8918C41.8879 14.8918 42.3318 14.698 42.6492 14.3117C42.9673 13.9248 43.1263 13.4147 43.1263 12.7809Z" fill="white"/>
<path d="M53.4387 13.4729C53.4387 14.1805 53.1596 14.7562 52.5994 15.2007C51.9837 15.6863 51.1266 15.9289 50.0253 15.9289C49.0084 15.9289 48.1932 15.7564 47.5762 15.4107L47.927 14.2999C48.5916 14.6537 49.3209 14.8312 50.1155 14.8312C50.6857 14.8312 51.1295 14.7175 51.4483 14.4912C51.7657 14.2649 51.9241 13.9611 51.9241 13.5823C51.9241 13.2448 51.7934 12.9604 51.5314 12.7297C51.2708 12.499 50.8355 12.2846 50.2277 12.0865C48.5731 11.5433 47.7466 10.7476 47.7466 9.70117C47.7466 9.01733 48.0363 8.45663 48.6165 8.02032C49.1945 7.58339 49.9656 7.36523 50.9299 7.36523C51.7898 7.36523 52.5042 7.49713 53.0744 7.76029L52.6959 8.84668C52.1634 8.59165 51.5612 8.46413 50.8873 8.46413C50.3548 8.46413 49.9386 8.57977 49.6404 8.8098C49.3883 9.01545 49.2619 9.26611 49.2619 9.56303C49.2619 9.89182 49.4061 10.1637 49.6958 10.3775C49.9479 10.575 50.4059 10.7888 51.0705 11.0195C51.8836 11.3076 52.4808 11.6446 52.8649 12.0309C53.2477 12.4159 53.4387 12.8978 53.4387 13.4729Z" fill="white"/>
<path d="M58.4427 10.8062H56.774V13.7185C56.774 14.4592 57.068 14.8293 57.6574 14.8293C57.9279 14.8293 58.1523 14.8086 58.3298 14.7674L58.3717 15.7794C58.0735 15.8775 57.6808 15.9269 57.1944 15.9269C56.5965 15.9269 56.1293 15.7663 55.792 15.4456C55.4561 15.1243 55.2871 14.5855 55.2871 13.8285V10.805H54.293V9.80485H55.2871V8.70658L56.774 8.31152V9.80485H58.4427V10.8062Z" fill="white"/>
<path d="M65.972 12.7578C65.972 13.6798 65.6723 14.4368 65.0744 15.0288C64.4474 15.6382 63.6152 15.942 62.5778 15.942C61.578 15.942 60.7819 15.6501 60.1883 15.0663C59.5947 14.4824 59.2979 13.7455 59.2979 12.8572C59.2979 11.9277 59.6032 11.1664 60.216 10.5744C60.8274 9.98184 61.6525 9.68555 62.69 9.68555C63.6898 9.68555 64.4943 9.97746 65.1014 10.5619C65.6823 11.1289 65.972 11.8608 65.972 12.7578ZM64.4013 12.801C64.4013 12.2478 64.2671 11.7733 63.9951 11.3776C63.6777 10.8988 63.2239 10.6601 62.636 10.6601C62.0274 10.6601 61.5652 10.8995 61.2478 11.3776C60.9758 11.774 60.8416 12.2559 60.8416 12.826C60.8416 13.3792 60.9758 13.8536 61.2478 14.2487C61.5751 14.7275 62.0324 14.9662 62.6225 14.9662C63.2005 14.9662 63.6543 14.7225 63.9816 14.2362C64.2607 13.833 64.4013 13.3535 64.4013 12.801Z" fill="white"/>
<path d="M70.8927 10.9788C70.7429 10.9544 70.5831 10.9419 70.4155 10.9419C69.8829 10.9419 69.4711 11.1188 69.1814 11.4732C68.9293 11.7857 68.8029 12.1808 68.8029 12.6577V15.805H67.2897L67.3039 11.6957C67.3039 11.0044 67.2847 10.3749 67.2471 9.80736H68.5657L68.6211 10.955H68.663C68.8228 10.5606 69.0749 10.243 69.42 10.0049C69.7573 9.79048 70.1215 9.68359 70.5142 9.68359C70.6541 9.68359 70.7805 9.69234 70.8927 9.70797V10.9788Z" fill="white"/>
<path d="M77.665 12.5246C77.665 12.7633 77.6473 12.9646 77.6096 13.129H73.0679C73.0857 13.7216 73.3051 14.1748 73.7269 14.4873C74.1096 14.7667 74.6045 14.9068 75.2124 14.9068C75.8848 14.9068 76.4983 14.8124 77.0501 14.623L77.2873 15.5481C76.6425 15.7956 75.8813 15.9188 75.0029 15.9188C73.9463 15.9188 73.1169 15.645 72.5133 15.098C71.9112 14.5511 71.6094 13.8166 71.6094 12.8952C71.6094 11.9907 71.8899 11.2375 72.4515 10.6368C73.0395 9.99547 73.8341 9.6748 74.8339 9.6748C75.8159 9.6748 76.5594 9.99547 77.0643 10.6368C77.4641 11.1463 77.665 11.7763 77.665 12.5246ZM76.2214 12.1789C76.2314 11.7838 76.1326 11.4425 75.9274 11.1544C75.6654 10.7837 75.2628 10.5987 74.721 10.5987C74.2261 10.5987 73.8234 10.7793 73.516 11.1419C73.2639 11.43 73.1141 11.7757 73.0679 12.1783H76.2214V12.1789Z" fill="white"/>
<path d="M25.7457 2.36874C25.7457 3.10446 25.4951 3.65829 24.9944 4.03021C24.5308 4.37338 23.8718 4.54528 23.0183 4.54528C22.595 4.54528 22.2329 4.52903 21.9297 4.49652V0.476613C22.3252 0.420355 22.7513 0.391602 23.2114 0.391602C24.0245 0.391602 24.6373 0.547247 25.0505 0.858539C25.5135 1.21046 25.7457 1.71365 25.7457 2.36874ZM24.9611 2.38687C24.9611 1.90993 24.8176 1.54425 24.5308 1.28922C24.2439 1.03481 23.8249 0.907295 23.2732 0.907295C23.0389 0.907295 22.8393 0.921047 22.6739 0.949801V4.00583C22.7655 4.01833 22.933 4.02396 23.1766 4.02396C23.7461 4.02396 24.1856 3.88457 24.4952 3.60578C24.8048 3.32699 24.9611 2.92069 24.9611 2.38687Z" fill="white"/>
<path d="M29.9054 3.01286C29.9054 3.46604 29.7585 3.83734 29.4645 4.12863C29.1563 4.42804 28.748 4.57744 28.2382 4.57744C27.7468 4.57744 27.3555 4.4343 27.0637 4.14676C26.7725 3.85984 26.627 3.49792 26.627 3.06161C26.627 2.6053 26.7768 2.23088 27.0779 1.94021C27.3789 1.64955 27.7837 1.50391 28.2935 1.50391C28.7849 1.50391 29.1797 1.64705 29.4787 1.93396C29.7627 2.21275 29.9054 2.5728 29.9054 3.01286ZM29.1336 3.03411C29.1336 2.7622 29.0668 2.52904 28.934 2.33464C28.7778 2.09961 28.5556 1.98209 28.2666 1.98209C27.9676 1.98209 27.7404 2.09961 27.5842 2.33464C27.4507 2.52904 27.3846 2.76595 27.3846 3.04599C27.3846 3.3179 27.4514 3.55105 27.5842 3.74545C27.7453 3.98049 27.9697 4.098 28.2595 4.098C28.5435 4.098 28.7665 3.97861 28.9269 3.7392C29.0647 3.54105 29.1336 3.30602 29.1336 3.03411Z" fill="white"/>
<path d="M35.4798 1.56348L34.4324 4.51012H33.7507L33.3169 3.23057C33.2068 2.91116 33.1173 2.59361 33.0477 2.27857H33.0342C32.9696 2.60236 32.8802 2.91928 32.7651 3.23057L32.3043 4.51012H31.6148L30.6299 1.56348H31.3946L31.7731 2.96429C31.8647 3.29558 31.94 3.61125 32.0004 3.91004H32.0138C32.0692 3.66376 32.1608 3.34996 32.2901 2.97054L32.7651 1.5641H33.3715L33.8267 2.94053C33.9368 3.2762 34.0262 3.59937 34.0951 3.91066H34.1157C34.1661 3.6075 34.2421 3.28433 34.3429 2.94053L34.7491 1.5641H35.4798V1.56348Z" fill="white"/>
<path d="M39.3442 4.51048H38.6001V2.82275C38.6001 2.30268 38.3757 2.04265 37.9255 2.04265C37.7046 2.04265 37.5264 2.11391 37.3879 2.25705C37.2509 2.4002 37.1813 2.56897 37.1813 2.76212V4.50985H36.4371V2.40582C36.4371 2.14704 36.4279 1.86638 36.4102 1.56259H37.0641L37.0989 2.02327H37.1195C37.2062 1.88013 37.3354 1.76199 37.5051 1.6676C37.7068 1.55759 37.9326 1.50195 38.1797 1.50195C38.4921 1.50195 38.752 1.59072 38.9587 1.76886C39.2157 1.98702 39.3442 2.31269 39.3442 2.74524V4.51048Z" fill="white"/>
<path d="M41.395 4.50963H40.6514V0.210938H41.395V4.50963Z" fill="white"/>
<path d="M45.7756 3.01286C45.7756 3.46604 45.6286 3.83734 45.3346 4.12863C45.0264 4.42804 44.6174 4.57744 44.1083 4.57744C43.6162 4.57744 43.2249 4.4343 42.9338 4.14676C42.6426 3.85984 42.4971 3.49792 42.4971 3.06161C42.4971 2.6053 42.6469 2.23088 42.948 1.94021C43.2491 1.64955 43.6538 1.50391 44.1629 1.50391C44.655 1.50391 45.0491 1.64705 45.3488 1.93396C45.6328 2.21275 45.7756 2.5728 45.7756 3.01286ZM45.003 3.03411C45.003 2.7622 44.9362 2.52904 44.8034 2.33464C44.6479 2.09961 44.425 1.98209 44.1367 1.98209C43.837 1.98209 43.6098 2.09961 43.4543 2.33464C43.3208 2.52904 43.2547 2.76595 43.2547 3.04599C43.2547 3.3179 43.3215 3.55105 43.4543 3.74545C43.6155 3.98049 43.8399 4.098 44.1296 4.098C44.4136 4.098 44.6359 3.97861 44.7963 3.7392C44.9348 3.54105 45.003 3.30602 45.003 3.03411Z" fill="white"/>
<path d="M49.3779 4.51056H48.7097L48.6543 4.17114H48.6338C48.4051 4.4418 48.0792 4.57744 47.656 4.57744C47.34 4.57744 47.0843 4.48805 46.8919 4.31053C46.7172 4.14926 46.6299 3.94861 46.6299 3.71045C46.6299 3.3504 46.8003 3.07599 47.1433 2.88596C47.4855 2.69594 47.967 2.6028 48.5869 2.60718V2.55217C48.5869 2.16399 48.3554 1.97022 47.8917 1.97022C47.5615 1.97022 47.2704 2.04335 47.019 2.18837L46.8678 1.75831C47.1788 1.58892 47.5629 1.50391 48.016 1.50391C48.8908 1.50391 49.3296 1.91021 49.3296 2.72282V3.80796C49.3296 4.10238 49.346 4.33678 49.3779 4.51056ZM48.6054 3.49792V3.04349C47.7845 3.03098 47.3741 3.22914 47.3741 3.63732C47.3741 3.79109 47.4209 3.9061 47.5168 3.98299C47.6126 4.05987 47.7348 4.098 47.8804 4.098C48.0437 4.098 48.1963 4.05237 48.3355 3.96173C48.4754 3.87047 48.5613 3.75483 48.5933 3.61294C48.6011 3.58106 48.6054 3.5423 48.6054 3.49792Z" fill="white"/>
<path d="M53.6017 4.50963H52.9413L52.9065 4.03645H52.8859C52.675 4.39649 52.3157 4.57652 51.8108 4.57652C51.4075 4.57652 51.0716 4.43712 50.8053 4.15834C50.539 3.87955 50.4062 3.51763 50.4062 3.07319C50.4062 2.59625 50.5504 2.20995 50.8401 1.91491C51.1206 1.63988 51.4643 1.50236 51.8733 1.50236C52.3228 1.50236 52.6374 1.6355 52.8163 1.90241H52.8305V0.210938H53.5754V3.71578C53.5754 4.00269 53.5839 4.2671 53.6017 4.50963ZM52.8305 3.26697V2.77565C52.8305 2.69064 52.8234 2.62188 52.8099 2.56938C52.768 2.41186 52.6778 2.27934 52.5408 2.17245C52.4023 2.06556 52.2354 2.0118 52.043 2.0118C51.7654 2.0118 51.5481 2.10869 51.3883 2.30309C51.23 2.49749 51.1497 2.74565 51.1497 3.04881C51.1497 3.3401 51.2257 3.57639 51.3784 3.75828C51.5396 3.95206 51.7568 4.04895 52.0288 4.04895C52.2731 4.04895 52.4684 3.96831 52.6168 3.80642C52.7602 3.65702 52.8305 3.477 52.8305 3.26697Z" fill="white"/>
<path d="M59.966 3.01286C59.966 3.46604 59.819 3.83734 59.525 4.12863C59.2168 4.42804 58.8093 4.57744 58.2987 4.57744C57.808 4.57744 57.4168 4.4343 57.1242 4.14676C56.8331 3.85984 56.6875 3.49792 56.6875 3.06161C56.6875 2.6053 56.8373 2.23088 57.1384 1.94021C57.4395 1.64955 57.8442 1.50391 58.3548 1.50391C58.8455 1.50391 59.241 1.64705 59.5392 1.93396C59.8233 2.21275 59.966 2.5728 59.966 3.01286ZM59.1948 3.03411C59.1948 2.7622 59.1281 2.52904 58.9953 2.33464C58.8384 2.09961 58.6168 1.98209 58.3271 1.98209C58.0289 1.98209 57.8016 2.09961 57.6447 2.33464C57.5112 2.52904 57.4452 2.76595 57.4452 3.04599C57.4452 3.3179 57.5119 3.55105 57.6447 3.74545C57.8059 3.98049 58.0303 4.098 58.32 4.098C58.604 4.098 58.8277 3.97861 58.9882 3.7392C59.1252 3.54105 59.1948 3.30602 59.1948 3.03411Z" fill="white"/>
<path d="M63.9754 4.51048H63.2319V2.82275C63.2319 2.30268 63.0075 2.04265 62.5566 2.04265C62.3358 2.04265 62.1575 2.11391 62.0198 2.25705C61.882 2.4002 61.8131 2.56897 61.8131 2.76212V4.50985H61.0683V2.40582C61.0683 2.14704 61.0597 1.86638 61.042 1.56259H61.6953L61.7301 2.02327H61.7507C61.838 1.88013 61.9672 1.76199 62.1362 1.6676C62.3386 1.55759 62.5637 1.50195 62.8115 1.50195C63.1233 1.50195 63.3832 1.59072 63.5898 1.76886C63.8476 1.98702 63.9754 2.31269 63.9754 2.74524V4.51048Z" fill="white"/>
<path d="M68.9816 2.05266H68.1619V3.4841C68.1619 3.8479 68.3075 4.0298 68.5959 4.0298C68.7295 4.0298 68.8403 4.0198 68.9276 3.99917L68.9468 4.49611C68.7998 4.54487 68.6066 4.56925 68.3686 4.56925C68.0746 4.56925 67.8459 4.49049 67.6804 4.33297C67.5142 4.17545 67.4318 3.91041 67.4318 3.53849V2.05266H66.9424V1.56197H67.4318V1.0219L68.1612 0.828125V1.56135H68.9809V2.05266H68.9816Z" fill="white"/>
<path d="M72.9237 4.50963H72.1788V2.83441C72.1788 2.30622 71.9544 2.04181 71.505 2.04181C71.1599 2.04181 70.9241 2.19495 70.7949 2.50124C70.7729 2.56563 70.7601 2.64439 70.7601 2.7369V4.50901H70.0166V0.210938H70.7601V1.9868H70.7743C71.0086 1.66363 71.3445 1.50236 71.7798 1.50236C72.0879 1.50236 72.3429 1.59112 72.5452 1.76927C72.7973 1.99117 72.9237 2.32122 72.9237 2.75753V4.50963Z" fill="white"/>
<path d="M76.9877 2.89761C76.9877 3.01512 76.9778 3.11389 76.96 3.19452H74.7282C74.7381 3.48581 74.8447 3.70772 75.0513 3.86149C75.2402 3.999 75.4837 4.06776 75.782 4.06776C76.1122 4.06776 76.4132 4.02151 76.6845 3.92837L76.801 4.38343C76.4835 4.5047 76.11 4.56533 75.6776 4.56533C75.1592 4.56533 74.7509 4.43094 74.4555 4.16215C74.1587 3.89337 74.0117 3.53269 74.0117 3.08013C74.0117 2.6357 74.1488 2.26565 74.425 1.97061C74.7133 1.65557 75.1031 1.49805 75.5952 1.49805C76.0767 1.49805 76.4424 1.65557 76.6895 1.97061C76.889 2.22064 76.9877 2.53006 76.9877 2.89761ZM76.2776 2.72821C76.2833 2.53381 76.2343 2.36629 76.1335 2.22502C76.0042 2.04312 75.8075 1.95186 75.5413 1.95186C75.2984 1.95186 75.1003 2.04062 74.949 2.21877C74.8255 2.36066 74.7523 2.53006 74.7282 2.72821H76.2776Z" fill="white"/>
</svg>
