<svg width="44" height="44" viewBox="0 0 44 44" fill="none" xmlns="http://www.w3.org/2000/svg">
<rect width="44" height="44" rx="9.14286" fill="#C0C0EE" fill-opacity="0.2"/>
<path d="M29.44 15H25.762C25.3483 15 24.9515 15.1644 24.6589 15.4569C24.3664 15.7495 24.202 16.1463 24.202 16.56V19.2H20.164C19.7497 19.2 19.3523 19.3642 19.0588 19.6565C18.7653 19.9489 18.5996 20.3457 18.598 20.76V23.4H14.56C14.1467 23.4016 13.7509 23.5664 13.4587 23.8587C13.1664 24.1509 13.0016 24.5467 13 24.96V27.15C13 27.5876 13.1738 28.0073 13.4833 28.3167C13.7927 28.6262 14.2124 28.8 14.65 28.8H29.35C29.7876 28.8 30.2073 28.6262 30.5167 28.3167C30.8262 28.0073 31 27.5876 31 27.15V16.56C30.9984 16.1467 30.8336 15.7509 30.5413 15.4587C30.2491 15.1664 29.8533 15.0016 29.44 15ZM18.598 27.6H14.65C14.5311 27.5984 14.4176 27.5505 14.3335 27.4665C14.2495 27.3824 14.2016 27.2689 14.2 27.15V24.96C14.2 24.8645 14.2379 24.773 14.3054 24.7054C14.373 24.6379 14.4645 24.6 14.56 24.6H18.598V27.6ZM24.202 27.6H19.798V20.76C19.798 20.7122 19.8075 20.6649 19.826 20.6208C19.8444 20.5768 19.8715 20.5368 19.9056 20.5033C19.9396 20.4698 19.98 20.4434 20.0244 20.4257C20.0688 20.4079 20.1162 20.3992 20.164 20.4H24.202V27.6ZM29.8 27.15C29.7984 27.2689 29.7505 27.3824 29.6665 27.4665C29.5824 27.5505 29.4689 27.5984 29.35 27.6H25.402V16.56C25.402 16.4645 25.4399 16.373 25.5074 16.3054C25.575 16.2379 25.6665 16.2 25.762 16.2H29.44C29.5355 16.2 29.627 16.2379 29.6946 16.3054C29.7621 16.373 29.8 16.4645 29.8 16.56V27.15Z" fill="white"/>
</svg>
