<svg width="16" height="18" viewBox="0 0 16 18" fill="none" xmlns="http://www.w3.org/2000/svg">
<path d="M13.2364 1.43628H2.76373C2.12108 1.43628 1.6001 1.95725 1.6001 2.59991V15.3999C1.6001 16.0425 2.12108 16.5635 2.76373 16.5635H13.2364C13.8791 16.5635 14.4001 16.0425 14.4001 15.3999V2.59991C14.4001 1.95725 13.8791 1.43628 13.2364 1.43628Z" stroke="white" stroke-width="1.0505" stroke-linecap="round" stroke-linejoin="round"/>
<path d="M1.6001 7.25439H14.4001" stroke="white" stroke-width="1.0505" stroke-linecap="round" stroke-linejoin="round"/>
<path d="M4.80019 10.7454C4.63952 10.7454 4.50928 10.6151 4.50928 10.4545C4.50928 10.2938 4.63952 10.1636 4.80019 10.1636" stroke="white" stroke-width="1.0505" stroke-linecap="round" stroke-linejoin="round"/>
<path d="M4.80029 10.7454C4.96096 10.7454 5.0912 10.6151 5.0912 10.4545C5.0912 10.2938 4.96096 10.1636 4.80029 10.1636" stroke="white" stroke-width="1.0505" stroke-linecap="round" stroke-linejoin="round"/>
<path d="M7.99989 10.7454C7.83923 10.7454 7.70898 10.6151 7.70898 10.4545C7.70898 10.2938 7.83923 10.1636 7.99989 10.1636" stroke="white" stroke-width="1.0505" stroke-linecap="round" stroke-linejoin="round"/>
<path d="M8 10.7454C8.16066 10.7454 8.29091 10.6151 8.29091 10.4545C8.29091 10.2938 8.16066 10.1636 8 10.1636" stroke="white" stroke-width="1.0505" stroke-linecap="round" stroke-linejoin="round"/>
<path d="M11.2001 10.7454C11.0394 10.7454 10.9092 10.6151 10.9092 10.4545C10.9092 10.2938 11.0394 10.1636 11.2001 10.1636" stroke="white" stroke-width="1.0505" stroke-linecap="round" stroke-linejoin="round"/>
<path d="M11.2002 10.7454C11.3609 10.7454 11.4911 10.6151 11.4911 10.4545C11.4911 10.2938 11.3609 10.1636 11.2002 10.1636" stroke="white" stroke-width="1.0505" stroke-linecap="round" stroke-linejoin="round"/>
<path d="M4.80019 13.6546C4.63952 13.6546 4.50928 13.5244 4.50928 13.3637C4.50928 13.203 4.63952 13.0728 4.80019 13.0728" stroke="white" stroke-width="1.0505" stroke-linecap="round" stroke-linejoin="round"/>
<path d="M4.80029 13.6546C4.96096 13.6546 5.0912 13.5244 5.0912 13.3637C5.0912 13.203 4.96096 13.0728 4.80029 13.0728" stroke="white" stroke-width="1.0505" stroke-linecap="round" stroke-linejoin="round"/>
<path d="M7.99989 13.6546C7.83923 13.6546 7.70898 13.5244 7.70898 13.3637C7.70898 13.203 7.83923 13.0728 7.99989 13.0728" stroke="white" stroke-width="1.0505" stroke-linecap="round" stroke-linejoin="round"/>
<path d="M8 13.6546C8.16066 13.6546 8.29091 13.5244 8.29091 13.3637C8.29091 13.203 8.16066 13.0728 8 13.0728" stroke="white" stroke-width="1.0505" stroke-linecap="round" stroke-linejoin="round"/>
<path d="M11.2001 13.6546C11.0394 13.6546 10.9092 13.5244 10.9092 13.3637C10.9092 13.203 11.0394 13.0728 11.2001 13.0728" stroke="white" stroke-width="1.0505" stroke-linecap="round" stroke-linejoin="round"/>
<path d="M11.2002 13.6546C11.3609 13.6546 11.4911 13.5244 11.4911 13.3637C11.4911 13.203 11.3609 13.0728 11.2002 13.0728" stroke="white" stroke-width="1.0505" stroke-linecap="round" stroke-linejoin="round"/>
<path d="M11.4908 4.34546H10.3271" stroke="white" stroke-width="1.0505" stroke-linecap="round" stroke-linejoin="round"/>
</svg>
