<svg width="21" height="20" viewBox="0 0 21 20" fill="none" xmlns="http://www.w3.org/2000/svg">
<path d="M16.9997 2.5003H15.4993V1.49998C15.4993 1.22385 15.2755 1 14.9993 1C14.7232 1 14.4994 1.22385 14.4994 1.49998V2.5003H6.49975V1.49997C6.49975 1.22385 6.27591 1 5.99978 1C5.72365 1 5.4998 1.22385 5.4998 1.49998V2.5003H4.00032C2.62172 2.5003 1.5 3.62196 1.5 5.00049V16.4998C1.5 17.8783 2.62172 19 4.00032 19H16.9997C18.3783 19 19.5 17.8783 19.5 16.4998V7.4998V6.4999V4.9996C19.4991 3.62107 18.3774 2.5003 16.9997 2.5003ZM18.4992 16.4989C18.4992 17.3255 17.8263 17.9983 16.9997 17.9983H4.00032C3.17281 17.9983 2.49995 17.3255 2.49995 16.4989V7.4998H18.4992V16.4989ZM18.4992 6.4999H2.49995V4.9996C2.49995 4.17213 3.17281 3.49931 4.00032 3.49931H5.50069V3.99968C5.50069 4.27556 5.72434 4.49921 6.00022 4.49921C6.27611 4.49921 6.49975 4.27556 6.49975 3.99968V3.5002H14.4994V4.00012C14.4994 4.27625 14.7232 4.5001 14.9993 4.5001C15.2755 4.5001 15.4993 4.27625 15.4993 4.00012V3.5002H16.9997C17.8263 3.5002 18.4992 4.17213 18.4992 4.9996V6.4999Z" fill="#C0C0EE"/>
</svg>
