<svg width="16" height="16" viewBox="0 0 16 16" fill="none" xmlns="http://www.w3.org/2000/svg">
<path d="M4.06144 15.2H11.8153C12.731 15.2 13.5999 14.4542 13.5999 13.5385V5.02774C13.5999 4.58466 13.3033 4.16743 12.9913 3.85359L10.4251 1.28743C10.1094 0.973587 9.69221 0.800049 9.24913 0.800049H4.06144C3.14575 0.800049 2.3999 1.54589 2.3999 2.46159V13.5385C2.3999 14.4542 3.14575 15.2 4.06144 15.2ZM10.1537 2.06097L12.2159 4.12313H11.0768C10.5691 4.12313 10.1537 3.70959 10.1537 3.20005V2.06097ZM3.1999 2.46159C3.1999 1.95389 3.5519 1.60005 4.06144 1.60005L9.24913 1.58343C9.30636 1.58343 9.3599 1.58897 9.41529 1.60005V3.20005C9.41529 4.11574 10.1611 4.86159 11.0768 4.86159H12.7236C12.7328 4.91513 12.7402 4.97051 12.7402 5.02774V13.5385C12.7402 14.0462 12.3248 14.4 11.8153 14.4H4.06144C3.55375 14.4 3.1999 14.048 3.1999 13.5385V2.46159Z" fill="white"/>
<path d="M5.16904 4.67694H7.75365C7.95673 4.67694 8.12288 4.51078 8.12288 4.30771C8.12288 4.10463 7.95673 3.93848 7.75365 3.93848H5.16904C4.96596 3.93848 4.7998 4.10463 4.7998 4.30771C4.7998 4.51078 4.96596 4.67694 5.16904 4.67694Z" fill="white"/>
<path d="M5.16904 6.7077H11.0767C11.2798 6.7077 11.446 6.54155 11.446 6.33847C11.446 6.13539 11.2798 5.96924 11.0767 5.96924H5.16904C4.96596 5.96924 4.7998 6.13539 4.7998 6.33847C4.7998 6.54155 4.96596 6.7077 5.16904 6.7077Z" fill="white"/>
<path d="M5.16904 8.73846H11.0767C11.2798 8.73846 11.446 8.57231 11.446 8.36923C11.446 8.16615 11.2798 8 11.0767 8H5.16904C4.96596 8 4.7998 8.16615 4.7998 8.36923C4.7998 8.57231 4.96596 8.73846 5.16904 8.73846Z" fill="white"/>
</svg>
