<svg width="20" height="21" viewBox="0 0 20 21" fill="none" xmlns="http://www.w3.org/2000/svg">
<path fill-rule="evenodd" clip-rule="evenodd" d="M5.83268 2.16699C3.5315 2.16699 1.66602 4.03247 1.66602 6.33366V14.667C1.66602 16.9682 3.5315 18.8337 5.83268 18.8337H14.166C16.4672 18.8337 18.3327 16.9682 18.3327 14.667V6.33366C18.3327 4.03247 16.4672 2.16699 14.166 2.16699H5.83268ZM6.45768 3.41699C3.99936 3.41699 2.91602 4.50034 2.91602 6.95866V14.042C2.91602 16.5003 3.99936 17.5837 6.45768 17.5837H13.541C15.9994 17.5837 17.0827 16.5003 17.0827 14.042V6.95866C16.9994 4.50034 15.9994 3.41699 13.541 3.41699H6.45768Z" fill="#C0C0EE"/>
</svg>
