<svg width="20" height="21" viewBox="0 0 20 21" fill="none" xmlns="http://www.w3.org/2000/svg">
<path d="M13.616 2.16699C16.441 2.16699 18.3327 4.15033 18.3327 7.10032V13.9095C18.3327 16.8503 16.441 18.8337 13.616 18.8337H6.39102C3.56602 18.8337 1.66602 16.8503 1.66602 13.9095V7.10032C1.66602 4.15033 3.56602 2.16699 6.39102 2.16699H13.616ZM13.4827 8.00032C13.1993 7.71699 12.7327 7.71699 12.4493 8.00032L9.00768 11.442L7.54935 9.98366C7.26602 9.70032 6.79935 9.70032 6.51602 9.98366C6.23268 10.267 6.23268 10.7253 6.51602 11.017L8.49935 12.992C8.64102 13.1337 8.82435 13.2003 9.00768 13.2003C9.19935 13.2003 9.38268 13.1337 9.52435 12.992L13.4827 9.03366C13.766 8.75032 13.766 8.29199 13.4827 8.00032Z" fill="white"/>
</svg>
