<svg width="16" height="16" viewBox="0 0 16 16" fill="none" xmlns="http://www.w3.org/2000/svg">
<path fill-rule="evenodd" clip-rule="evenodd" d="M4.93361 1.6001C3.09229 1.6001 1.59961 3.09278 1.59961 4.9341V11.6021C1.59961 13.4434 3.09229 14.9361 4.93361 14.9361H11.6016C13.4429 14.9361 14.9356 13.4434 14.9356 11.6021V4.9341C14.9356 3.09278 13.4429 1.6001 11.6016 1.6001H4.93361ZM5.93381 7.2679C5.38141 7.2679 4.93361 7.7157 4.93361 8.2681C4.93361 8.82049 5.38141 9.2683 5.93381 9.2683H10.6014C11.1538 9.2683 11.6016 8.82049 11.6016 8.2681C11.6016 7.7157 11.1538 7.2679 10.6014 7.2679H5.93381Z" fill="#C0C0EE"/>
</svg>
