<svg width="16" height="16" viewBox="0 0 16 16" fill="none" xmlns="http://www.w3.org/2000/svg">
<g clip-path="url(#clip0_4080_93079)">
<path fill-rule="evenodd" clip-rule="evenodd" d="M8.00005 0.800049C6.57602 0.800049 5.18398 1.22232 3.99994 2.01347C2.81591 2.80461 1.89307 3.9291 1.34812 5.24473C0.803168 6.56035 0.660585 8.00803 0.938398 9.40469C1.21621 10.8014 1.90194 12.0843 2.90888 13.0912C3.91582 14.0981 5.19874 14.7839 6.5954 15.0617C7.99206 15.3395 9.43974 15.1969 10.7554 14.652C12.071 14.107 13.1955 13.1842 13.9866 12.0001C14.7778 10.8161 15.2 9.42407 15.2 8.00004C15.2 6.09049 14.4415 4.25914 13.0912 2.90888C11.741 1.55862 9.90961 0.800049 8.00005 0.800049ZM8.00005 14.3C6.75403 14.3 5.53599 13.9306 4.49996 13.2383C3.46393 12.546 2.65644 11.5621 2.17961 10.4109C1.70278 9.25978 1.57802 7.99306 1.8211 6.77098C2.06419 5.5489 2.66421 4.42634 3.54528 3.54527C4.42635 2.6642 5.5489 2.06419 6.77098 1.8211C7.99306 1.57801 9.25978 1.70278 10.411 2.17961C11.5621 2.65644 12.5461 3.46392 13.2383 4.49995C13.9306 5.53598 14.3 6.75402 14.3 8.00004C14.3 9.67091 13.6363 11.2733 12.4548 12.4548C11.2733 13.6363 9.67091 14.3 8.00005 14.3ZM10.7 7.55004H8.45005V4.40005C8.45005 4.2807 8.40264 4.16624 8.31825 4.08185C8.23385 3.99746 8.1194 3.95005 8.00005 3.95005C7.8807 3.95005 7.76624 3.99746 7.68185 4.08185C7.59746 4.16624 7.55005 4.2807 7.55005 4.40005V8.00004C7.55005 8.11939 7.59746 8.23385 7.68185 8.31824C7.76624 8.40263 7.8807 8.45004 8.00005 8.45004H10.7C10.8194 8.45004 10.9339 8.40263 11.0182 8.31824C11.1026 8.23385 11.15 8.11939 11.15 8.00004C11.15 7.8807 11.1026 7.76624 11.0182 7.68185C10.9339 7.59746 10.8194 7.55004 10.7 7.55004Z" fill="white"/>
</g>
<defs>
<clipPath id="clip0_4080_93079">
<rect width="16" height="16" fill="white"/>
</clipPath>
</defs>
</svg>
