<svg width="16" height="16" viewBox="0 0 16 16" fill="none" xmlns="http://www.w3.org/2000/svg">
<path fill-rule="evenodd" clip-rule="evenodd" d="M7.11111 8L4.12698 5.01587C3.81739 4.70628 3.67553 4.56442 3.68121 4.42874C3.68602 4.31398 3.79635 4.20365 4 4C4.20365 3.79635 4.31399 3.68601 4.42874 3.68121C4.56442 3.67553 4.70628 3.81739 5.01587 4.12698L8 7.11111L10.9841 4.12698C11.2937 3.81739 11.4356 3.67553 11.5713 3.68121C11.686 3.68601 11.7963 3.79635 12 4C12.2036 4.20365 12.314 4.31398 12.3188 4.42874C12.3245 4.56442 12.1826 4.70628 11.873 5.01587L8.88889 8L11.873 10.9841C12.1826 11.2937 12.3245 11.4356 12.3188 11.5713C12.314 11.686 12.2037 11.7963 12 12C11.7964 12.2036 11.686 12.314 11.5713 12.3188C11.4356 12.3245 11.2937 12.1826 10.9841 11.873L8 8.88889L5.01587 11.873C4.70628 12.1826 4.56442 12.3245 4.42874 12.3188C4.31398 12.314 4.20365 12.2036 4 12C3.79635 11.7963 3.68601 11.686 3.68121 11.5713C3.67553 11.4356 3.81739 11.2937 4.12698 10.9841L7.11111 8Z" fill="#C0C0EE"/>
</svg>
