<svg width="21" height="21" viewBox="0 0 21 21" fill="none" xmlns="http://www.w3.org/2000/svg">
<path fill-rule="evenodd" clip-rule="evenodd" d="M9.16092 10.2721L5.43076 6.5419C5.04377 6.15491 4.86645 5.97759 4.87355 5.80798C4.87955 5.66454 5.01747 5.52663 5.27203 5.27206C5.5266 5.0175 5.66452 4.87958 5.80796 4.87358C5.97756 4.86648 6.15488 5.0438 6.54188 5.43079L10.272 9.16095L14.0022 5.43079C14.3892 5.0438 14.5665 4.86648 14.7361 4.87358C14.8796 4.87958 15.0175 5.0175 15.272 5.27206C15.5266 5.52662 15.6645 5.66454 15.6705 5.80798C15.6776 5.97759 15.5003 6.15491 15.1133 6.5419L11.3831 10.2721L15.1133 14.0022C15.5003 14.3892 15.6776 14.5665 15.6705 14.7361C15.6645 14.8796 15.5266 15.0175 15.272 15.2721C15.0175 15.5266 14.8796 15.6645 14.7361 15.6705C14.5665 15.6776 14.3892 15.5003 14.0022 15.1133L10.272 11.3832L6.54187 15.1133C6.15488 15.5003 5.97756 15.6776 5.80795 15.6705C5.66451 15.6645 5.52659 15.5266 5.27203 15.2721C5.01747 15.0175 4.87955 14.8796 4.87355 14.7361C4.86645 14.5665 5.04377 14.3892 5.43076 14.0022L9.16092 10.2721Z" fill="white"/>
</svg>
