<svg width="18" height="18" viewBox="0 0 18 18" fill="none" xmlns="http://www.w3.org/2000/svg">
<path d="M9.0625 8.43749V8.93749H9.5625H12.375C12.3916 8.93749 12.4075 8.94408 12.4192 8.9558C12.4309 8.96752 12.4375 8.98342 12.4375 8.99999C12.4375 9.01657 12.4309 9.03247 12.4192 9.04419C12.4075 9.05591 12.3916 9.06249 12.375 9.06249H9C8.98342 9.06249 8.96752 9.05591 8.9558 9.04419C8.94408 9.03247 8.9375 9.01657 8.9375 8.99999V4.5C8.9375 4.48342 8.94408 4.46752 8.9558 4.4558C8.96752 4.44408 8.98342 4.4375 9 4.4375C9.01657 4.4375 9.03247 4.44408 9.04419 4.4558C9.05591 4.46752 9.0625 4.48342 9.0625 4.5V8.43749ZM4.27765 1.93251C5.67547 0.998516 7.31886 0.5 9 0.5C11.2543 0.5 13.4163 1.39553 15.0104 2.98959C16.6045 4.58365 17.5 6.74566 17.5 8.99999C17.5 10.6811 17.0015 12.3245 16.0675 13.7223C15.1335 15.1202 13.806 16.2096 12.2528 16.853C10.6996 17.4963 8.99057 17.6646 7.34173 17.3367C5.69289 17.0087 4.17834 16.1991 2.98959 15.0104C1.80085 13.8217 0.991303 12.3071 0.663329 10.6583C0.335355 9.00942 0.503683 7.30036 1.14703 5.74719C1.79037 4.19402 2.87984 2.8665 4.27765 1.93251ZM4.3471 15.9635C5.72436 16.8838 7.34358 17.375 9 17.375C11.2212 17.375 13.3514 16.4926 14.922 14.922C16.4926 13.3514 17.375 11.2212 17.375 8.99999C17.375 7.34358 16.8838 5.72436 15.9636 4.3471C15.0433 2.96984 13.7353 1.89639 12.205 1.26251C10.6746 0.628624 8.99071 0.462771 7.36612 0.785922C5.74153 1.10907 4.24925 1.90671 3.07798 3.07798C1.90672 4.24924 1.10908 5.74152 0.785927 7.36611C0.462775 8.9907 0.628628 10.6746 1.26251 12.205C1.8964 13.7353 2.96984 15.0433 4.3471 15.9635Z" fill="white" stroke="#C0C0EE"/>
</svg>
