<svg width="123" height="34" viewBox="0 0 123 34" fill="none" xmlns="http://www.w3.org/2000/svg">
<path d="M122 29.7923C122 31.5645 120.436 33 118.501 33H4.00332C2.0696 33 0.5 31.5645 0.5 29.7923V4.21189C0.5 2.44054 2.0696 1 4.00332 1H118.5C120.436 1 121.999 2.44054 121.999 4.21189L122 29.7923Z" fill="#222245" stroke="#A6A6A6" stroke-width="0.5"/>
<path d="M48.2102 10.3629C48.2102 10.9087 48.0455 11.3458 47.7212 11.6718C47.3482 12.0583 46.8625 12.2528 46.2673 12.2528C45.6985 12.2528 45.2128 12.055 44.8143 11.6653C44.415 11.2698 44.2158 10.7845 44.2158 10.2035C44.2158 9.62258 44.415 9.13724 44.8143 8.74504C45.2128 8.35203 45.6985 8.1543 46.2673 8.1543C46.5505 8.1543 46.8205 8.21231 47.0782 8.32016C47.3351 8.42883 47.5442 8.57591 47.6957 8.7573L47.3515 9.10211C47.0873 8.79243 46.7275 8.63964 46.2673 8.63964C45.8524 8.63964 45.4927 8.78345 45.1872 9.07351C44.8851 9.36439 44.7336 9.74106 44.7336 10.2035C44.7336 10.666 44.8851 11.0459 45.1872 11.3368C45.4927 11.6236 45.8524 11.7707 46.2673 11.7707C46.7078 11.7707 47.0782 11.6236 47.3705 11.3335C47.5631 11.1415 47.6726 10.8768 47.7014 10.5385H46.2673V10.0663H48.1805C48.2036 10.1684 48.2102 10.2673 48.2102 10.3629Z" fill="white" stroke="white" stroke-width="0.16" stroke-miterlimit="10"/>
<path d="M51.2509 8.72638H49.4532V9.96833H51.0738V10.4406H49.4532V11.6826H51.2509V12.1638H48.9443V8.24512H51.2509V8.72638Z" fill="white" stroke="white" stroke-width="0.16" stroke-miterlimit="10"/>
<path d="M53.3869 12.1638H52.878V8.72638H51.7754V8.24512H54.4903V8.72638H53.3869V12.1638Z" fill="white" stroke="white" stroke-width="0.16" stroke-miterlimit="10"/>
<path d="M56.4551 12.1638V8.24512H56.9632V12.1638H56.4551Z" fill="white" stroke="white" stroke-width="0.16" stroke-miterlimit="10"/>
<path d="M59.216 12.1638H58.7112V8.72638H57.6045V8.24512H60.3227V8.72638H59.216V12.1638Z" fill="white" stroke="white" stroke-width="0.16" stroke-miterlimit="10"/>
<path d="M65.4632 11.6587C65.0738 12.055 64.5914 12.2528 64.016 12.2528C63.4372 12.2528 62.9548 12.055 62.5654 11.6587C62.1769 11.2633 61.9834 10.7779 61.9834 10.2035C61.9834 9.62912 62.1769 9.14378 62.5654 8.74831C62.9548 8.35203 63.4372 8.1543 64.016 8.1543C64.5881 8.1543 65.0706 8.35203 65.4599 8.75158C65.8518 9.15031 66.0453 9.63239 66.0453 10.2035C66.0453 10.7779 65.8518 11.2633 65.4632 11.6587ZM62.9417 11.3303C63.2347 11.6236 63.5912 11.7707 64.016 11.7707C64.4375 11.7707 64.7972 11.6236 65.087 11.3303C65.3793 11.0369 65.5274 10.6603 65.5274 10.2035C65.5274 9.74678 65.3793 9.37011 65.087 9.07678C64.7972 8.78345 64.4375 8.63637 64.016 8.63637C63.5912 8.63637 63.2347 8.78345 62.9417 9.07678C62.6494 9.37011 62.5012 9.74678 62.5012 10.2035C62.5012 10.6603 62.6494 11.0369 62.9417 11.3303Z" fill="white" stroke="white" stroke-width="0.16" stroke-miterlimit="10"/>
<path d="M66.7578 12.1638V8.24512H67.3752L69.295 11.2928H69.3173L69.295 10.5395V8.24512H69.803V12.1638H69.2728L67.2625 8.96578H67.2402L67.2625 9.72239V12.1638H66.7578Z" fill="white" stroke="white" stroke-width="0.16" stroke-miterlimit="10"/>
<path d="M61.8523 17.885C60.3055 17.885 59.0418 19.0535 59.0418 20.6655C59.0418 22.2646 60.3055 23.4452 61.8523 23.4452C63.4025 23.4452 64.6662 22.2646 64.6662 20.6655C64.6662 19.0535 63.4025 17.885 61.8523 17.885ZM61.8523 22.3504C61.0036 22.3504 60.2734 21.655 60.2734 20.6655C60.2734 19.663 61.0036 18.9799 61.8523 18.9799C62.7011 18.9799 63.4346 19.663 63.4346 20.6655C63.4346 21.655 62.7011 22.3504 61.8523 22.3504ZM55.72 17.885C54.1699 17.885 52.9095 19.0535 52.9095 20.6655C52.9095 22.2646 54.1699 23.4452 55.72 23.4452C57.2694 23.4452 58.5306 22.2646 58.5306 20.6655C58.5306 19.0535 57.2694 17.885 55.72 17.885ZM55.72 22.3504C54.8705 22.3504 54.1378 21.655 54.1378 20.6655C54.1378 19.663 54.8705 18.9799 55.72 18.9799C56.5688 18.9799 57.299 19.663 57.299 20.6655C57.299 21.655 56.5688 22.3504 55.72 22.3504ZM48.4228 18.7372V19.9187H51.2655C51.1823 20.5789 50.9601 21.0643 50.6192 21.4026C50.2043 21.8111 49.5581 22.2646 48.4228 22.2646C46.6735 22.2646 45.3036 20.8633 45.3036 19.127C45.3036 17.3907 46.6735 15.9894 48.4228 15.9894C49.3687 15.9894 50.057 16.3563 50.5649 16.8318L51.4038 15.9992C50.6933 15.326 49.7483 14.8087 48.4228 14.8087C46.0239 14.8087 44.0078 16.746 44.0078 19.127C44.0078 21.508 46.0239 23.4452 48.4228 23.4452C49.7194 23.4452 50.6933 23.0236 51.459 22.2327C52.2435 21.454 52.488 20.3591 52.488 19.4751C52.488 19.2005 52.465 18.9481 52.4238 18.7372H48.4228ZM78.262 19.6532C78.0307 19.0314 77.3169 17.885 75.8631 17.885C74.4224 17.885 73.2229 19.0118 73.2229 20.6655C73.2229 22.2229 74.41 23.4452 76.0014 23.4452C77.2881 23.4452 78.0307 22.6666 78.3361 22.2131L77.3811 21.5815C77.0625 22.044 76.6287 22.3504 76.0014 22.3504C75.3782 22.3504 74.9312 22.0668 74.6447 21.508L78.3912 19.9694L78.262 19.6532ZM74.4422 20.5789C74.41 19.5069 75.281 18.9579 75.9051 18.9579C76.3941 18.9579 76.809 19.2005 76.9473 19.5478L74.4422 20.5789ZM71.397 23.2761H72.6286V15.1053H71.397V23.2761ZM69.3801 18.5044H69.3389C69.0623 18.1792 68.5346 17.885 67.8661 17.885C66.4633 17.885 65.1807 19.1074 65.1807 20.6745C65.1807 22.2327 66.4633 23.4452 67.8661 23.4452C68.5346 23.4452 69.0623 23.1486 69.3389 22.8136H69.3801V23.2124C69.3801 24.2754 68.8079 24.8465 67.885 24.8465C67.1326 24.8465 66.6658 24.3073 66.4732 23.8538L65.4022 24.2974C65.7109 25.0345 66.5284 25.9414 67.885 25.9414C69.329 25.9414 70.5474 25.0982 70.5474 23.0465V18.0542H69.3801V18.5044ZM67.9715 22.3504C67.1227 22.3504 66.4123 21.6452 66.4123 20.6745C66.4123 19.6949 67.1227 18.9799 67.9715 18.9799C68.8079 18.9799 69.4673 19.6949 69.4673 20.6745C69.4673 21.6452 68.8079 22.3504 67.9715 22.3504ZM84.028 15.1053H81.0824V23.2761H82.3107V20.1802H84.028C85.3921 20.1802 86.7298 19.2005 86.7298 17.6424C86.7298 16.085 85.3888 15.1053 84.028 15.1053ZM84.0601 19.0437H82.3107V16.2419H84.0601C84.9771 16.2419 85.5007 16.9977 85.5007 17.6424C85.5007 18.2748 84.9771 19.0437 84.0601 19.0437ZM91.6528 17.8695C90.7653 17.8695 89.8425 18.2584 89.463 19.1205L90.553 19.5739C90.7876 19.1205 91.219 18.9734 91.675 18.9734C92.3122 18.9734 92.9585 19.3533 92.9683 20.0241V20.1099C92.7461 19.9825 92.2702 19.7937 91.6849 19.7937C90.511 19.7937 89.3148 20.4351 89.3148 21.6321C89.3148 22.727 90.2763 23.4322 91.3573 23.4322C92.1838 23.4322 92.6399 23.062 92.9263 22.6314H92.9683V23.263H94.1546V20.1287C94.1546 18.6801 93.0647 17.8695 91.6528 17.8695ZM91.5046 22.3471C91.1029 22.3471 90.5431 22.1494 90.5431 21.655C90.5431 21.0226 91.2412 20.7799 91.8454 20.7799C92.3863 20.7799 92.6399 20.8984 92.9683 21.0545C92.872 21.8111 92.2159 22.3471 91.5046 22.3471ZM98.4766 18.0485L97.0648 21.5905H97.0228L95.5632 18.0485H94.2386L96.4317 22.9983L95.1804 25.7527H96.4638L99.8432 18.0485H98.4766ZM87.4049 23.2761H88.6364V15.1053H87.4049V23.2761Z" fill="white"/>
<path d="M23.8513 8.59435C23.6579 8.79535 23.5459 9.10829 23.5459 9.51356V23.9693C23.5459 24.3746 23.6579 24.6875 23.8513 24.8885L23.8991 24.9326L32.0607 16.8354V16.6442L23.8991 8.54696L23.8513 8.59435Z" fill="url(#paint0_linear_3500_47773)"/>
<path d="M34.781 19.5352L32.0635 16.8347V16.6435L34.7843 13.9431L34.8452 13.9782L38.0674 15.7978C38.9869 16.3142 38.9869 17.164 38.0674 17.6837L34.8452 19.5L34.781 19.5352Z" fill="url(#paint1_linear_3500_47773)"/>
<path d="M34.8465 19.5025L32.0648 16.7416L23.8555 24.8904C24.1609 25.209 24.659 25.2474 25.2253 24.9288L34.8465 19.5025Z" fill="url(#paint2_linear_3500_47773)"/>
<path d="M34.8465 13.9793L25.2253 8.55313C24.659 8.23773 24.1609 8.27614 23.8555 8.5948L32.0648 16.7402L34.8465 13.9793Z" fill="url(#paint3_linear_3500_47773)"/>
<defs>
<linearGradient id="paint0_linear_3500_47773" x1="31.336" y1="24.1198" x2="20.3663" y2="13.0674" gradientUnits="userSpaceOnUse">
<stop stop-color="#00A0FF"/>
<stop offset="0.0066" stop-color="#00A1FF"/>
<stop offset="0.2601" stop-color="#00BEFF"/>
<stop offset="0.5122" stop-color="#00D2FF"/>
<stop offset="0.7604" stop-color="#00DFFF"/>
<stop offset="1" stop-color="#00E3FF"/>
</linearGradient>
<linearGradient id="paint1_linear_3500_47773" x1="39.2648" y1="16.7382" x2="23.3289" y2="16.7382" gradientUnits="userSpaceOnUse">
<stop stop-color="#FFE000"/>
<stop offset="0.4087" stop-color="#FFBD00"/>
<stop offset="0.7754" stop-color="#FFA500"/>
<stop offset="1" stop-color="#FF9C00"/>
</linearGradient>
<linearGradient id="paint2_linear_3500_47773" x1="33.3339" y1="15.2408" x2="18.4581" y2="0.252767" gradientUnits="userSpaceOnUse">
<stop stop-color="#FF3A44"/>
<stop offset="1" stop-color="#C31162"/>
</linearGradient>
<linearGradient id="paint3_linear_3500_47773" x1="21.789" y1="29.6983" x2="28.4317" y2="23.0055" gradientUnits="userSpaceOnUse">
<stop stop-color="#32A071"/>
<stop offset="0.0685" stop-color="#2DA771"/>
<stop offset="0.4762" stop-color="#15CF74"/>
<stop offset="0.8009" stop-color="#06E775"/>
<stop offset="1" stop-color="#00F076"/>
</linearGradient>
</defs>
</svg>
