<svg width="77" height="18" viewBox="0 0 77 18" fill="none" xmlns="http://www.w3.org/2000/svg">
<path d="M25.2102 2.36286C25.2102 2.90866 25.0455 3.3458 24.7212 3.67181C24.3482 4.05829 23.8625 4.25275 23.2673 4.25275C22.6985 4.25275 22.2128 4.05502 21.8143 3.66528C21.415 3.26981 21.2158 2.78447 21.2158 2.20353C21.2158 1.62258 21.415 1.13724 21.8143 0.745044C22.2128 0.35203 22.6985 0.154297 23.2673 0.154297C23.5505 0.154297 23.8205 0.212309 24.0782 0.320164C24.3351 0.428835 24.5442 0.575908 24.6957 0.757299L24.3515 1.10211C24.0873 0.792434 23.7275 0.639641 23.2673 0.639641C22.8524 0.639641 22.4927 0.783446 22.1872 1.07351C21.8851 1.36439 21.7336 1.74106 21.7336 2.20353C21.7336 2.66599 21.8851 3.04593 22.1872 3.33681C22.4927 3.6236 22.8524 3.77068 23.2673 3.77068C23.7078 3.77068 24.0782 3.6236 24.3705 3.33354C24.5631 3.14153 24.6726 2.8768 24.7014 2.53853H23.2673V2.06626H25.1805C25.2036 2.16839 25.2102 2.26726 25.2102 2.36286Z" fill="white" stroke="white" stroke-width="0.16" stroke-miterlimit="10"/>
<path d="M28.2509 0.726375H26.4532V1.96833H28.0738V2.4406H26.4532V3.68256H28.2509V4.16382H25.9443V0.245117H28.2509V0.726375Z" fill="white" stroke="white" stroke-width="0.16" stroke-miterlimit="10"/>
<path d="M30.3869 4.16382H29.878V0.726375H28.7754V0.245117H31.4903V0.726375H30.3869V4.16382Z" fill="white" stroke="white" stroke-width="0.16" stroke-miterlimit="10"/>
<path d="M33.4551 4.16382V0.245117H33.9632V4.16382H33.4551Z" fill="white" stroke="white" stroke-width="0.16" stroke-miterlimit="10"/>
<path d="M36.216 4.16382H35.7112V0.726375H34.6045V0.245117H37.3227V0.726375H36.216V4.16382Z" fill="white" stroke="white" stroke-width="0.16" stroke-miterlimit="10"/>
<path d="M42.4632 3.65874C42.0738 4.05502 41.5914 4.25275 41.016 4.25275C40.4372 4.25275 39.9548 4.05502 39.5654 3.65874C39.1769 3.26327 38.9834 2.77793 38.9834 2.20353C38.9834 1.62912 39.1769 1.14378 39.5654 0.748312C39.9548 0.35203 40.4372 0.154297 41.016 0.154297C41.5881 0.154297 42.0706 0.352029 42.4599 0.75158C42.8518 1.15031 43.0453 1.63239 43.0453 2.20353C43.0453 2.77793 42.8518 3.26327 42.4632 3.65874ZM39.9417 3.33027C40.2347 3.6236 40.5912 3.77068 41.016 3.77068C41.4375 3.77068 41.7972 3.6236 42.087 3.33027C42.3793 3.03694 42.5274 2.66027 42.5274 2.20353C42.5274 1.74678 42.3793 1.37011 42.087 1.07678C41.7972 0.783447 41.4375 0.636372 41.016 0.636372C40.5912 0.636372 40.2347 0.783447 39.9417 1.07678C39.6494 1.37011 39.5012 1.74678 39.5012 2.20353C39.5012 2.66027 39.6494 3.03694 39.9417 3.33027Z" fill="white" stroke="white" stroke-width="0.16" stroke-miterlimit="10"/>
<path d="M43.7578 4.16382V0.245117H44.3752L46.295 3.29281H46.3173L46.295 2.53947V0.245117H46.803V4.16382H46.2728L44.2625 0.965779H44.2402L44.2625 1.72239V4.16382H43.7578Z" fill="white" stroke="white" stroke-width="0.16" stroke-miterlimit="10"/>
<path d="M38.8523 9.88504C37.3055 9.88504 36.0418 11.0535 36.0418 12.6655C36.0418 14.2646 37.3055 15.4452 38.8523 15.4452C40.4025 15.4452 41.6662 14.2646 41.6662 12.6655C41.6662 11.0535 40.4025 9.88504 38.8523 9.88504ZM38.8523 14.3504C38.0036 14.3504 37.2734 13.655 37.2734 12.6655C37.2734 11.663 38.0036 10.9799 38.8523 10.9799C39.7011 10.9799 40.4346 11.663 40.4346 12.6655C40.4346 13.655 39.7011 14.3504 38.8523 14.3504ZM32.72 9.88504C31.1699 9.88504 29.9095 11.0535 29.9095 12.6655C29.9095 14.2646 31.1699 15.4452 32.72 15.4452C34.2694 15.4452 35.5306 14.2646 35.5306 12.6655C35.5306 11.0535 34.2694 9.88504 32.72 9.88504ZM32.72 14.3504C31.8705 14.3504 31.1378 13.655 31.1378 12.6655C31.1378 11.663 31.8705 10.9799 32.72 10.9799C33.5688 10.9799 34.299 11.663 34.299 12.6655C34.299 13.655 33.5688 14.3504 32.72 14.3504ZM25.4228 10.7372V11.9187H28.2655C28.1823 12.5789 27.9601 13.0643 27.6192 13.4026C27.2043 13.8111 26.5581 14.2646 25.4228 14.2646C23.6735 14.2646 22.3036 12.8633 22.3036 11.127C22.3036 9.39071 23.6735 7.98942 25.4228 7.98942C26.3687 7.98942 27.057 8.35629 27.5649 8.83183L28.4038 7.99923C27.6933 7.32596 26.7483 6.80875 25.4228 6.80875C23.0239 6.80875 21.0078 8.74603 21.0078 11.127C21.0078 13.508 23.0239 15.4452 25.4228 15.4452C26.7194 15.4452 27.6933 15.0236 28.459 14.2327C29.2435 13.454 29.488 12.3591 29.488 11.4751C29.488 11.2005 29.465 10.9481 29.4238 10.7372H25.4228ZM55.262 11.6532C55.0307 11.0314 54.3169 9.88504 52.8631 9.88504C51.4224 9.88504 50.2229 11.0118 50.2229 12.6655C50.2229 14.2229 51.41 15.4452 53.0014 15.4452C54.2881 15.4452 55.0307 14.6666 55.3361 14.2131L54.3811 13.5815C54.0625 14.044 53.6287 14.3504 53.0014 14.3504C52.3782 14.3504 51.9312 14.0668 51.6447 13.508L55.3912 11.9694L55.262 11.6532ZM51.4422 12.5789C51.41 11.5069 52.281 10.9579 52.9051 10.9579C53.3941 10.9579 53.809 11.2005 53.9473 11.5478L51.4422 12.5789ZM48.397 15.2761H49.6286V7.10535H48.397V15.2761ZM46.3801 10.5044H46.3389C46.0623 10.1792 45.5346 9.88504 44.8661 9.88504C43.4633 9.88504 42.1807 11.1074 42.1807 12.6745C42.1807 14.2327 43.4633 15.4452 44.8661 15.4452C45.5346 15.4452 46.0623 15.1486 46.3389 14.8136H46.3801V15.2124C46.3801 16.2754 45.8079 16.8465 44.885 16.8465C44.1326 16.8465 43.6658 16.3073 43.4732 15.8538L42.4022 16.2974C42.7109 17.0345 43.5284 17.9414 44.885 17.9414C46.329 17.9414 47.5474 17.0982 47.5474 15.0465V10.0542H46.3801V10.5044ZM44.9715 14.3504C44.1227 14.3504 43.4123 13.6452 43.4123 12.6745C43.4123 11.6949 44.1227 10.9799 44.9715 10.9799C45.8079 10.9799 46.4673 11.6949 46.4673 12.6745C46.4673 13.6452 45.8079 14.3504 44.9715 14.3504ZM61.028 7.10535H58.0824V15.2761H59.3107V12.1802H61.028C62.3921 12.1802 63.7298 11.2005 63.7298 9.64237C63.7298 8.08502 62.3888 7.10535 61.028 7.10535ZM61.0601 11.0437H59.3107V8.2419H61.0601C61.9771 8.2419 62.5007 8.99769 62.5007 9.64237C62.5007 10.2748 61.9771 11.0437 61.0601 11.0437ZM68.6528 9.86951C67.7653 9.86951 66.8425 10.2584 66.463 11.1205L67.553 11.5739C67.7876 11.1205 68.219 10.9734 68.675 10.9734C69.3122 10.9734 69.9585 11.3533 69.9683 12.0241V12.1099C69.7461 11.9825 69.2702 11.7937 68.6849 11.7937C67.511 11.7937 66.3148 12.4351 66.3148 13.6321C66.3148 14.727 67.2763 15.4322 68.3573 15.4322C69.1838 15.4322 69.6399 15.062 69.9263 14.6314H69.9683V15.263H71.1546V12.1287C71.1546 10.6801 70.0647 9.86951 68.6528 9.86951ZM68.5046 14.3471C68.1029 14.3471 67.5431 14.1494 67.5431 13.655C67.5431 13.0226 68.2412 12.7799 68.8454 12.7799C69.3863 12.7799 69.6399 12.8984 69.9683 13.0545C69.872 13.8111 69.2159 14.3471 68.5046 14.3471ZM75.4766 10.0485L74.0648 13.5905H74.0228L72.5632 10.0485H71.2386L73.4317 14.9983L72.1804 17.7527H73.4638L76.8432 10.0485H75.4766ZM64.4049 15.2761H65.6364V7.10535H64.4049V15.2761Z" fill="white"/>
<path d="M0.85132 0.594345C0.657858 0.795346 0.545898 1.10829 0.545898 1.51356V15.9693C0.545898 16.3746 0.657858 16.6875 0.85132 16.8885L0.899068 16.9326L9.06066 8.83538V8.64419L0.899068 0.546956L0.85132 0.594345Z" fill="url(#paint0_linear_3598_132432)"/>
<path d="M11.781 11.5352L9.06348 8.83472V8.64352L11.7843 5.94308L11.8452 5.97822L15.0674 7.79785C15.9869 8.31424 15.9869 9.164 15.0674 9.68366L11.8452 11.5L11.781 11.5352Z" fill="url(#paint1_linear_3598_132432)"/>
<path d="M11.8465 11.5025L9.06482 8.74165L0.855469 16.8904C1.16089 17.209 1.65895 17.2474 2.22534 16.9288L11.8465 11.5025Z" fill="url(#paint2_linear_3598_132432)"/>
<path d="M11.8465 5.97933L2.22534 0.553126C1.65895 0.237735 1.16089 0.276136 0.855469 0.594796L9.06482 8.74023L11.8465 5.97933Z" fill="url(#paint3_linear_3598_132432)"/>
<defs>
<linearGradient id="paint0_linear_3598_132432" x1="8.33601" y1="16.1198" x2="-2.63369" y2="5.06739" gradientUnits="userSpaceOnUse">
<stop stop-color="#00A0FF"/>
<stop offset="0.0066" stop-color="#00A1FF"/>
<stop offset="0.2601" stop-color="#00BEFF"/>
<stop offset="0.5122" stop-color="#00D2FF"/>
<stop offset="0.7604" stop-color="#00DFFF"/>
<stop offset="1" stop-color="#00E3FF"/>
</linearGradient>
<linearGradient id="paint1_linear_3598_132432" x1="16.2648" y1="8.7382" x2="0.328903" y2="8.7382" gradientUnits="userSpaceOnUse">
<stop stop-color="#FFE000"/>
<stop offset="0.4087" stop-color="#FFBD00"/>
<stop offset="0.7754" stop-color="#FFA500"/>
<stop offset="1" stop-color="#FF9C00"/>
</linearGradient>
<linearGradient id="paint2_linear_3598_132432" x1="10.3339" y1="7.24077" x2="-4.54188" y2="-7.74723" gradientUnits="userSpaceOnUse">
<stop stop-color="#FF3A44"/>
<stop offset="1" stop-color="#C31162"/>
</linearGradient>
<linearGradient id="paint3_linear_3598_132432" x1="-1.21099" y1="21.6983" x2="5.43172" y2="15.0055" gradientUnits="userSpaceOnUse">
<stop stop-color="#32A071"/>
<stop offset="0.0685" stop-color="#2DA771"/>
<stop offset="0.4762" stop-color="#15CF74"/>
<stop offset="0.8009" stop-color="#06E775"/>
<stop offset="1" stop-color="#00F076"/>
</linearGradient>
</defs>
</svg>
