<svg width="20" height="20" viewBox="0 0 20 20" fill="none" xmlns="http://www.w3.org/2000/svg">
<path d="M16.3973 5.99197L16.3638 5.7972C16.451 5.96556 16.5 6.13034 16.5 6.28462V16.9231C16.5 17.3558 16.2751 17.769 15.9288 18.0638C16.2307 17.7893 16.4254 17.3974 16.4254 16.9231V6.28462C16.4254 6.17151 16.4108 6.07013 16.3973 5.99197Z" fill="#C0C0EE" stroke="#C0C0EE"/>
<path d="M6.46154 5.84617H9.69231C9.94615 5.84617 10.1538 5.63848 10.1538 5.38463C10.1538 5.13079 9.94615 4.9231 9.69231 4.9231H6.46154C6.20769 4.9231 6 5.13079 6 5.38463C6 5.63848 6.20769 5.84617 6.46154 5.84617Z" fill="#C0C0EE"/>
<path d="M6.46154 8.38462H13.8462C14.1 8.38462 14.3077 8.17693 14.3077 7.92309C14.3077 7.66924 14.1 7.46155 13.8462 7.46155H6.46154C6.20769 7.46155 6 7.66924 6 7.92309C6 8.17693 6.20769 8.38462 6.46154 8.38462Z" fill="#C0C0EE"/>
<path d="M6.46154 10.9231H13.8462C14.1 10.9231 14.3077 10.7154 14.3077 10.4615C14.3077 10.2077 14.1 10 13.8462 10H6.46154C6.20769 10 6 10.2077 6 10.4615C6 10.7154 6.20769 10.9231 6.46154 10.9231Z" fill="#C0C0EE"/>
</svg>
