<svg width="16" height="18" viewBox="0 0 16 18" fill="none" xmlns="http://www.w3.org/2000/svg">
<path d="M15.3605 16.9607L11.3353 11.6799C12.4568 10.6367 13.1897 9.24273 13.4134 7.72756C13.637 6.21228 13.3382 4.66611 12.566 3.34318C11.7937 2.0204 10.5941 1.00004 9.16466 0.449916C7.73519 -0.10021 6.16113 -0.147241 4.70116 0.316515C3.24137 0.780271 1.98298 1.72729 1.13312 3.00149C0.283255 4.2757 -0.107305 5.80133 0.0253598 7.32736C0.158187 8.85328 0.806517 10.2885 1.86364 11.3967C2.92091 12.505 4.32392 13.2204 5.84174 13.425C6.14506 13.4634 6.45053 13.4827 6.7563 13.483C8.01586 13.4824 9.24996 13.1275 10.3176 12.459L14.3428 17.7465C14.4463 17.8821 14.5992 17.9712 14.7683 17.9942C14.9373 18.017 15.1085 17.972 15.2444 17.8688C15.3809 17.7643 15.4699 17.6095 15.4918 17.439C15.5135 17.2684 15.4664 17.0963 15.3605 16.9607ZM6.01618 12.1436C4.57405 11.9561 3.2661 11.2019 2.38142 10.0477C1.49678 8.89368 1.10835 7.43459 1.302 5.99342C1.4814 4.67841 2.13188 3.47305 3.13266 2.60133C4.13344 1.72961 5.41655 1.25065 6.74383 1.25352C6.99151 1.25482 7.2389 1.27207 7.48443 1.30498C9.4206 1.56733 11.0697 2.84253 11.8107 4.65049C12.5516 6.4583 12.2717 8.52408 11.0765 10.0697C9.88127 11.6153 7.95231 12.4058 6.01618 12.1436Z" fill="#6B6B6B"/>
</svg>
