<svg width="44" height="44" viewBox="0 0 44 44" fill="none" xmlns="http://www.w3.org/2000/svg">
<rect width="44" height="44" rx="9.14286" fill="#C0C0EE" fill-opacity="0.2"/>
<path fill-rule="evenodd" clip-rule="evenodd" d="M26.5395 22.8066L26.5394 22.8065L26.5298 22.8159C26.0262 23.3039 25.7964 24.0076 25.9106 24.6964L25.9119 24.7045L25.9134 24.7127L26.6586 28.837L22.9267 26.8906C22.6287 26.7329 22.3032 26.6511 21.9774 26.6418L21.961 26.6413H21.9447H21.7009H21.6162L21.5325 26.6538C21.3252 26.6846 21.1168 26.7508 20.9204 26.8566L17.2129 28.799L17.9571 24.685L17.9587 24.676L17.9602 24.6669C18.0735 23.9777 17.845 23.2763 17.3472 22.7862L17.3473 22.7862L17.3408 22.78L14.315 19.8472L18.4714 19.2442C19.1897 19.1606 19.8172 18.7199 20.1404 18.0735L20.1404 18.0735L20.1454 18.0634L21.9993 14.2624L23.8886 18.0683C24.1989 18.6993 24.7981 19.1345 25.4873 19.2401L25.4873 19.2401L25.4963 19.2415L29.6669 19.8465L26.5395 22.8066ZM17.4714 29.9538L21.4579 27.8652C21.5335 27.8238 21.6163 27.7968 21.7009 27.7842H21.9447C22.1022 27.7887 22.2561 27.8283 22.3947 27.9021L26.3802 29.9808C26.7159 30.1608 27.1253 30.1338 27.4331 29.9088C27.7472 29.6919 27.9055 29.3122 27.8381 28.9369L27.0381 24.5095C26.985 24.1891 27.092 23.8625 27.3251 23.6366L30.6907 20.451C30.9678 20.191 31.0695 19.795 30.9516 19.4342C30.8266 19.0742 30.5107 18.8132 30.1328 18.7592L25.6603 18.1104C25.3373 18.0609 25.0574 17.8567 24.9134 17.5624L22.9166 13.5399C22.7609 13.2376 22.4631 13.0351 22.1247 13H21.7458L21.5929 13.063L21.4948 13.099C21.4408 13.1305 21.3922 13.1692 21.3499 13.216L21.2689 13.279C21.196 13.3492 21.1357 13.4319 21.0889 13.5219L19.1182 17.5624C18.9652 17.8684 18.6664 18.0753 18.3263 18.1104L13.8539 18.7592C13.4822 18.8177 13.1745 19.0778 13.0539 19.4342C12.9297 19.7914 13.0242 20.1874 13.2959 20.451L16.5454 23.6006C16.7785 23.8301 16.8856 24.1585 16.8325 24.4816L16.0316 28.909C15.9443 29.4445 16.2998 29.952 16.8325 30.0528C17.0512 30.0879 17.2743 30.0528 17.4714 29.9538Z" fill="white"/>
</svg>
