<svg width="16" height="16" viewBox="0 0 16 16" fill="none" xmlns="http://www.w3.org/2000/svg">
<mask id="path-1-inside-1_7252_483355" fill="white">
<path d="M14.0297 3.5771C13.539 3.07456 12.7309 3.07456 12.2403 3.5771L6.28041 9.68149L3.75504 7.09488C3.2644 6.59234 2.45628 6.59234 1.96564 7.09488C1.475 7.59742 1.475 8.41036 1.96564 8.92768L5.40014 12.4307C5.64546 12.682 5.96293 12.8002 6.28041 12.8002C6.61231 12.8002 6.92979 12.682 7.17511 12.4307L14.0297 5.40989C14.5203 4.90735 14.5203 4.09442 14.0297 3.5771Z"/>
</mask>
<path d="M14.0297 3.5771C13.539 3.07456 12.7309 3.07456 12.2403 3.5771L6.28041 9.68149L3.75504 7.09488C3.2644 6.59234 2.45628 6.59234 1.96564 7.09488C1.475 7.59742 1.475 8.41036 1.96564 8.92768L5.40014 12.4307C5.64546 12.682 5.96293 12.8002 6.28041 12.8002C6.61231 12.8002 6.92979 12.682 7.17511 12.4307L14.0297 5.40989C14.5203 4.90735 14.5203 4.09442 14.0297 3.5771Z" fill="url(#paint0_linear_7252_483355)"/>
<path d="M14.0297 3.5771L14.5779 3.05711L14.5703 3.04928L14.0297 3.5771ZM12.2403 3.5771L11.6997 3.04928V3.04928L12.2403 3.5771ZM6.28041 9.68149L5.73979 10.2093L6.28041 10.763L6.82103 10.2093L6.28041 9.68149ZM3.75504 7.09488L3.21442 7.6227L3.75504 7.09488ZM1.96564 8.92768L1.41736 9.44769L1.42613 9.45664L1.96564 8.92768ZM5.40014 12.4307L5.94076 11.9029L5.93964 11.9017L5.40014 12.4307ZM7.17511 12.4307L6.63449 11.9029L7.17511 12.4307ZM14.0297 5.40989L14.5703 5.93772L14.0297 5.40989ZM14.5703 3.04928C13.7832 2.24309 12.4868 2.24309 11.6997 3.04928L12.7809 4.10492C12.9751 3.90603 13.2949 3.90603 13.4891 4.10492L14.5703 3.04928ZM11.6997 3.04928L5.73979 9.15367L6.82103 10.2093L12.7809 4.10492L11.6997 3.04928ZM6.82103 9.15367L4.29566 6.56706L3.21442 7.6227L5.73979 10.2093L6.82103 9.15367ZM4.29566 6.56706C3.50856 5.76088 2.21212 5.76088 1.42502 6.56706L2.50626 7.6227C2.70044 7.42381 3.02024 7.42381 3.21442 7.6227L4.29566 6.56706ZM1.42502 6.56706C0.643715 7.36731 0.654403 8.6431 1.41743 9.44761L2.51385 8.40774C2.29559 8.17762 2.30628 7.82754 2.50626 7.6227L1.42502 6.56706ZM1.42613 9.45664L4.86063 12.9596L5.93964 11.9017L2.50515 8.39872L1.42613 9.45664ZM4.85952 12.9585C5.25602 13.3646 5.77267 13.5558 6.28041 13.5558V12.0446C6.15319 12.0446 6.03489 11.9993 5.94076 11.9029L4.85952 12.9585ZM6.28041 13.5558C6.79787 13.5558 7.31615 13.3678 7.71573 12.9585L6.63449 11.9029C6.54343 11.9961 6.42676 12.0446 6.28041 12.0446V13.5558ZM7.71573 12.9585L14.5703 5.93772L13.4891 4.88207L6.63449 11.9029L7.71573 12.9585ZM14.5703 5.93772C15.3516 5.13747 15.3409 3.86168 14.5779 3.05716L13.4815 4.09704C13.6997 4.32716 13.689 4.67724 13.4891 4.88207L14.5703 5.93772Z" fill="url(#paint1_linear_7252_483355)" mask="url(#path-1-inside-1_7252_483355)"/>
<defs>
<linearGradient id="paint0_linear_7252_483355" x1="1.708" y1="-1.59968" x2="14.6946" y2="-1.55375" gradientUnits="userSpaceOnUse">
<stop stop-color="#5D7BFE"/>
<stop offset="1" stop-color="#0974FF"/>
</linearGradient>
<linearGradient id="paint1_linear_7252_483355" x1="1.708" y1="-1.59968" x2="14.6946" y2="-1.55375" gradientUnits="userSpaceOnUse">
<stop stop-color="#5D7BFE"/>
<stop offset="1" stop-color="#0974FF"/>
</linearGradient>
</defs>
</svg>
