<svg width="13" height="12" viewBox="0 0 13 12" fill="none" xmlns="http://www.w3.org/2000/svg">
<g clip-path="url(#clip0_3500_97309)">
<mask id="path-1-inside-1_3500_97309" fill="white">
<path d="M11.6931 6.05551C11.6211 5.91156 9.69425 2.39999 6.32686 2.39999C2.95946 2.39999 1.03266 5.89344 0.960631 6.05551C0.924581 6.12749 0.924581 6.23564 0.960631 6.30761C1.03261 6.45168 2.95946 9.96313 6.32686 9.96313C9.69425 9.96313 11.6211 6.46968 11.6931 6.30761C11.7471 6.23551 11.7471 6.12748 11.6931 6.05538V6.05551ZM6.32686 9.42291C3.64371 9.42291 1.87901 6.79375 1.50086 6.18156C1.87895 5.56934 3.62567 2.94022 6.32686 2.94022C9.01 2.94022 10.7747 5.56937 11.1529 6.18156C10.7748 6.79379 9.01007 9.42291 6.32686 9.42291ZM6.32686 3.87661C5.06637 3.87661 4.0219 4.9031 4.0219 6.18156C4.0219 7.46016 5.06633 8.48652 6.32686 8.48652C7.58738 8.48652 8.63181 7.44209 8.63181 6.18156C8.63181 4.92104 7.58738 3.87661 6.32686 3.87661ZM6.32686 7.9463C5.35452 7.9463 4.56216 7.15393 4.56216 6.1816C4.56216 5.20926 5.35452 4.41689 6.32686 4.41689C7.2992 4.41689 8.09156 5.20926 8.09156 6.1816C8.09156 7.15393 7.2992 7.9463 6.32686 7.9463Z"/>
</mask>
<path d="M11.6931 6.05551C11.6211 5.91156 9.69425 2.39999 6.32686 2.39999C2.95946 2.39999 1.03266 5.89344 0.960631 6.05551C0.924581 6.12749 0.924581 6.23564 0.960631 6.30761C1.03261 6.45168 2.95946 9.96313 6.32686 9.96313C9.69425 9.96313 11.6211 6.46968 11.6931 6.30761C11.7471 6.23551 11.7471 6.12748 11.6931 6.05538V6.05551ZM6.32686 9.42291C3.64371 9.42291 1.87901 6.79375 1.50086 6.18156C1.87895 5.56934 3.62567 2.94022 6.32686 2.94022C9.01 2.94022 10.7747 5.56937 11.1529 6.18156C10.7748 6.79379 9.01007 9.42291 6.32686 9.42291ZM6.32686 3.87661C5.06637 3.87661 4.0219 4.9031 4.0219 6.18156C4.0219 7.46016 5.06633 8.48652 6.32686 8.48652C7.58738 8.48652 8.63181 7.44209 8.63181 6.18156C8.63181 4.92104 7.58738 3.87661 6.32686 3.87661ZM6.32686 7.9463C5.35452 7.9463 4.56216 7.15393 4.56216 6.1816C4.56216 5.20926 5.35452 4.41689 6.32686 4.41689C7.2992 4.41689 8.09156 5.20926 8.09156 6.1816C8.09156 7.15393 7.2992 7.9463 6.32686 7.9463Z" fill="#C0C0EE"/>
<path d="M11.6931 6.05551L10.7987 6.50272L12.6931 6.05551H11.6931ZM0.960631 6.05551L1.85475 6.50335L1.86508 6.48273L1.87444 6.46165L0.960631 6.05551ZM0.960631 6.30761L1.85521 5.86071L1.85474 5.85976L0.960631 6.30761ZM11.6931 6.30761L10.8927 5.70805L10.8251 5.79836L10.7793 5.90147L11.6931 6.30761ZM11.6931 6.05538L12.4934 5.45583L10.6931 3.0526V6.05538H11.6931ZM1.50086 6.18156L0.65003 5.65612L0.325491 6.18162L0.650082 6.7071L1.50086 6.18156ZM11.1529 6.18156L12.0037 6.70701L12.3282 6.1815L12.0036 5.65603L11.1529 6.18156ZM12.5875 5.6083C12.5153 5.46392 11.9556 4.45206 10.9467 3.46053C9.9381 2.46938 8.37655 1.39999 6.32686 1.39999V3.39999C7.64456 3.39999 8.73014 4.08639 9.54484 4.88701C10.3591 5.68726 10.7989 6.50315 10.7987 6.50272L12.5875 5.6083ZM6.32686 1.39999C4.27891 1.39999 2.71768 2.46308 1.70796 3.45285C0.706694 4.43434 0.134273 5.4526 0.0468199 5.64937L1.87444 6.46165C1.85902 6.49635 2.28601 5.68685 3.108 4.8811C3.92154 4.08363 5.00741 3.39999 6.32686 3.39999V1.39999ZM0.066516 5.60767C-0.0353864 5.81112 -0.0664062 6.01634 -0.0664062 6.18156C-0.0664062 6.34678 -0.035387 6.552 0.0665241 6.75546L1.85474 5.85976C1.9206 5.99124 1.93359 6.1064 1.93359 6.18156C1.93359 6.25672 1.9206 6.37187 1.85475 6.50335L0.066516 5.60767ZM0.0660486 6.75451C0.138374 6.89929 0.69814 7.91118 1.70705 8.90264C2.71563 9.89378 4.27718 10.9631 6.32686 10.9631V8.96313C5.00914 8.96313 3.92356 8.27675 3.10887 7.47615C2.29451 6.67587 1.85486 5.86001 1.85521 5.86071L0.0660486 6.75451ZM6.32686 10.9631C8.37481 10.9631 9.93603 9.90004 10.9458 8.91027C11.947 7.92878 12.5194 6.91052 12.6069 6.71375L10.7793 5.90147C10.7947 5.86677 10.3677 6.67627 9.54571 7.48202C8.73218 8.27949 7.64631 8.96313 6.32686 8.96313V10.9631ZM12.4934 6.90716C12.8137 6.47969 12.8137 5.8833 12.4934 5.45583L10.8927 6.65494C10.7772 6.50066 10.7336 6.32996 10.7336 6.1815C10.7336 6.03303 10.7772 5.86234 10.8927 5.70805L12.4934 6.90716ZM10.6931 6.05538V6.05551H12.6931V6.05538H10.6931ZM6.32686 8.42291C5.3244 8.42291 4.44021 7.93138 3.71462 7.28508C2.99301 6.64233 2.51646 5.92287 2.35163 5.65603L0.650082 6.7071C0.86341 7.05245 1.45828 7.95366 2.38436 8.77853C3.30644 9.59986 4.64617 10.4229 6.32686 10.4229V8.42291ZM2.35168 6.70701C2.51839 6.43707 2.99049 5.71873 3.70884 5.07713C4.43035 4.43271 5.31442 3.94022 6.32686 3.94022V1.94022C4.63811 1.94022 3.29823 2.76229 2.37656 3.58548C1.45173 4.4115 0.861415 5.31383 0.65003 5.65612L2.35168 6.70701ZM6.32686 3.94022C7.32931 3.94022 8.21351 4.43175 8.9391 5.07805C9.6607 5.7208 10.1373 6.44026 10.3021 6.7071L12.0036 5.65603C11.7903 5.31068 11.1954 4.40947 10.2694 3.58459C9.34727 2.76327 8.00755 1.94022 6.32686 1.94022V3.94022ZM10.302 5.65612C10.1373 5.92289 9.66075 6.64235 8.93915 7.28509C8.21357 7.93138 7.32936 8.42291 6.32686 8.42291V10.4229C8.00757 10.4229 9.34731 9.59988 10.2694 8.77855C11.1955 7.95367 11.7903 7.05246 12.0037 6.70701L10.302 5.65612ZM6.32686 2.87661C4.51916 2.87661 3.0219 4.34575 3.0219 6.18156H5.0219C5.0219 5.46045 5.61357 4.87661 6.32686 4.87661V2.87661ZM3.0219 6.18156C3.0219 8.01754 4.51916 9.48652 6.32686 9.48652V7.48652C5.61351 7.48652 5.0219 6.90278 5.0219 6.18156H3.0219ZM6.32686 9.48652C8.13967 9.48652 9.63181 7.99437 9.63181 6.18156H7.63181C7.63181 6.8898 7.0351 7.48652 6.32686 7.48652V9.48652ZM9.63181 6.18156C9.63181 4.36876 8.13967 2.87661 6.32686 2.87661V4.87661C7.0351 4.87661 7.63181 5.47332 7.63181 6.18156H9.63181ZM6.32686 6.9463C5.9068 6.9463 5.56216 6.60165 5.56216 6.1816H3.56216C3.56216 7.70622 4.80223 8.9463 6.32686 8.9463V6.9463ZM5.56216 6.1816C5.56216 5.76154 5.9068 5.41689 6.32686 5.41689V3.4169C4.80223 3.4169 3.56216 4.65697 3.56216 6.1816H5.56216ZM6.32686 5.41689C6.74691 5.41689 7.09156 5.76154 7.09156 6.1816H9.09156C9.09156 4.65697 7.85148 3.4169 6.32686 3.4169V5.41689ZM7.09156 6.1816C7.09156 6.60165 6.74691 6.9463 6.32686 6.9463V8.9463C7.85148 8.9463 9.09156 7.70622 9.09156 6.1816H7.09156Z" fill="#C0C0EE" mask="url(#path-1-inside-1_3500_97309)"/>
</g>
<defs>
<clipPath id="clip0_3500_97309">
<rect width="12" height="12" fill="white" transform="translate(0.333984)"/>
</clipPath>
</defs>
</svg>
