<svg width="136" height="132" viewBox="0 0 136 132" fill="none" xmlns="http://www.w3.org/2000/svg">
<path d="M6.41697 87.2614C2.60047 91.3539 0.330949 96.6495 -0.000538238 102.236C-0.0879631 106.97 1.52913 111.579 4.55589 115.22L4.76981 115.477C6.12759 116.906 7.71915 118.092 9.47598 118.985C9.74411 119.128 10.0231 119.25 10.3103 119.349L11.2729 119.734C12.2006 120.073 13.1514 120.344 14.118 120.547C17.1531 121.141 20.2566 121.307 23.3378 121.039L25.0277 120.868C25.6053 120.868 26.1829 120.718 26.7818 120.59L28.6429 120.29C28.663 120.3 28.6849 120.305 28.7071 120.305C28.7293 120.305 28.7512 120.3 28.7713 120.29H28.9424C36.4313 118.623 43.6722 115.991 50.4838 112.461L14.8239 78.5122C12.0002 81.3787 9.19789 84.3094 6.41697 87.2614Z" fill="white"/>
<path d="M24.4287 69.0572L63.2974 106.086C67.5333 104.554 71.9925 103.73 76.4961 103.648L32.3864 61.6343C29.7766 64.0301 27.1241 66.4902 24.4287 69.0572Z" fill="white"/>
<path d="M43.4883 54.0402C43.4883 54.0402 131.194 137.468 128.157 134.345L135.023 126.066L51.7883 46.9167C49.1999 49.0773 46.4831 51.4304 43.4883 54.0402Z" fill="white"/>
<path d="M69.2443 30.5947C69.2443 30.5947 66.934 32.3703 63.1691 35.4293L61.3722 36.8625C61.2392 36.9881 61.0961 37.1026 60.9443 37.2048L143.666 115.883L150.618 107.605L69.4796 30.3167L69.2443 30.5947Z" fill="white"/>
<path d="M66.314 1.65191C64.4538 2.31506 62.8413 3.53189 61.6934 5.13875L158.94 97.7861L165.914 89.5289L72.3678 0.368408C70.3179 0.62814 68.293 1.05744 66.314 1.65191Z" fill="white"/>
<path d="M111.557 5.01051C105.517 3.13009 99.3467 1.70006 93.0957 0.732178L175.111 78.5765L182 70.4477L176.523 65.2709L114.487 6.18706L111.557 5.01051Z" fill="white"/>
</svg>
