<svg width="15" height="16" viewBox="0 0 15 16" fill="none" xmlns="http://www.w3.org/2000/svg">
<path d="M12.3126 8.4805C12.2921 6.46586 14.1866 5.48573 14.2732 5.4401C13.2003 4.06304 11.5372 3.87489 10.9528 3.85989C9.55607 3.7305 8.20122 4.59561 7.48971 4.59561C6.76399 4.59561 5.66832 3.87239 4.48744 3.89364C2.96785 3.91427 1.54625 4.68875 0.766567 5.89141C-0.842499 8.34361 0.357555 11.9472 1.89916 13.9294C2.67032 14.9001 3.57143 15.984 4.75089 15.9459C5.90478 15.904 6.33581 15.2983 7.7283 15.2983C9.108 15.2983 9.51276 15.9459 10.7156 15.9215C11.954 15.904 12.7337 14.9464 13.4779 13.9669C14.3691 12.8542 14.727 11.7584 14.7412 11.7022C14.712 11.6934 12.3361 10.8952 12.3126 8.4805Z" fill="white"/>
<path d="M10.0404 2.55596C10.661 1.87275 11.0856 0.94325 10.9677 0C10.0695 0.0350047 8.9461 0.546948 8.29921 1.21516C7.72688 1.80399 7.21561 2.76912 7.34769 3.67674C8.35673 3.743 9.39275 3.22855 10.0404 2.55596Z" fill="white"/>
</svg>
