<svg width="12" height="12" viewBox="0 0 12 12" fill="none" xmlns="http://www.w3.org/2000/svg">
<g clip-path="url(#clip0_3500_139439)">
<mask id="path-1-inside-1_3500_139439" fill="white">
<path d="M9.89942 1.50028H8.99919V0.900083C8.99919 0.734406 8.86489 0.600098 8.69921 0.600098C8.53353 0.600098 8.39922 0.734406 8.39922 0.900083V1.50028H3.59946V0.900083C3.59946 0.734406 3.46515 0.600098 3.29948 0.600098C3.1338 0.600098 2.99949 0.734406 2.99949 0.900083V1.50028H2.0998C1.27264 1.50028 0.599609 2.17328 0.599609 3.00039V9.89998C0.599609 10.7271 1.27264 11.4001 2.0998 11.4001H9.89942C10.7266 11.4001 11.3996 10.7271 11.3996 9.89998V4.49998V3.90004V2.99986C11.3991 2.17274 10.726 1.50028 9.89942 1.50028ZM10.7991 9.89945C10.7991 10.3954 10.3954 10.7991 9.89942 10.7991H2.0998C1.60329 10.7991 1.19958 10.3954 1.19958 9.89945V4.49998H10.7991V9.89945ZM10.7991 3.90004H1.19958V2.99986C1.19958 2.50338 1.60329 2.09968 2.0998 2.09968H3.00002V2.3999C3.00002 2.56543 3.13421 2.69962 3.29974 2.69962C3.46527 2.69962 3.59946 2.56543 3.59946 2.3999V2.10022H8.39922V2.40017C8.39922 2.56585 8.53353 2.70016 8.69921 2.70016C8.86489 2.70016 8.99919 2.56585 8.99919 2.40017V2.10022H9.89942C10.3954 2.10022 10.7991 2.50338 10.7991 2.99986V3.90004Z"/>
</mask>
<path d="M9.89942 1.50028H8.99919V0.900083C8.99919 0.734406 8.86489 0.600098 8.69921 0.600098C8.53353 0.600098 8.39922 0.734406 8.39922 0.900083V1.50028H3.59946V0.900083C3.59946 0.734406 3.46515 0.600098 3.29948 0.600098C3.1338 0.600098 2.99949 0.734406 2.99949 0.900083V1.50028H2.0998C1.27264 1.50028 0.599609 2.17328 0.599609 3.00039V9.89998C0.599609 10.7271 1.27264 11.4001 2.0998 11.4001H9.89942C10.7266 11.4001 11.3996 10.7271 11.3996 9.89998V4.49998V3.90004V2.99986C11.3991 2.17274 10.726 1.50028 9.89942 1.50028ZM10.7991 9.89945C10.7991 10.3954 10.3954 10.7991 9.89942 10.7991H2.0998C1.60329 10.7991 1.19958 10.3954 1.19958 9.89945V4.49998H10.7991V9.89945ZM10.7991 3.90004H1.19958V2.99986C1.19958 2.50338 1.60329 2.09968 2.0998 2.09968H3.00002V2.3999C3.00002 2.56543 3.13421 2.69962 3.29974 2.69962C3.46527 2.69962 3.59946 2.56543 3.59946 2.3999V2.10022H8.39922V2.40017C8.39922 2.56585 8.53353 2.70016 8.69921 2.70016C8.86489 2.70016 8.99919 2.56585 8.99919 2.40017V2.10022H9.89942C10.3954 2.10022 10.7991 2.50338 10.7991 2.99986V3.90004Z" fill="#C0C0EE"/>
<path d="M8.99919 1.50028H7.99919V2.50028H8.99919V1.50028ZM8.39922 1.50028V2.50028H9.39922V1.50028H8.39922ZM3.59946 1.50028H2.59946V2.50028H3.59946V1.50028ZM2.99949 1.50028V2.50028H3.99949V1.50028H2.99949ZM11.3996 2.99986H12.3996V2.99922L11.3996 2.99986ZM1.19958 4.49998V3.49998H0.19958V4.49998H1.19958ZM10.7991 4.49998H11.7991V3.49998H10.7991V4.49998ZM10.7991 3.90004V4.90004H11.7991V3.90004H10.7991ZM1.19958 3.90004H0.19958V4.90004H1.19958V3.90004ZM3.00002 2.09968H4.00002V1.09968H3.00002V2.09968ZM3.59946 2.10022V1.10022H2.59946V2.10022H3.59946ZM8.39922 2.10022H9.39922V1.10022H8.39922V2.10022ZM8.99919 2.10022V1.10022H7.99919V2.10022H8.99919ZM9.89942 0.500275H8.99919V2.50028H9.89942V0.500275ZM9.99919 1.50028V0.900083H7.99919V1.50028H9.99919ZM7.39922 0.900083V1.50028H9.39922V0.900083H7.39922ZM8.39922 0.500275H3.59946V2.50028H8.39922V0.500275ZM4.59946 1.50028V0.900083H2.59946V1.50028H4.59946ZM1.99949 0.900083V1.50028H3.99949V0.900083H1.99949ZM2.99949 0.500275H2.0998V2.50028H2.99949V0.500275ZM2.0998 0.500275C0.720405 0.500275 -0.400391 1.62094 -0.400391 3.00039H1.59961C1.59961 2.72561 1.82488 2.50028 2.0998 2.50028V0.500275ZM-0.400391 3.00039V9.89998H1.59961V3.00039H-0.400391ZM-0.400391 9.89998C-0.400391 11.2794 0.720404 12.4001 2.0998 12.4001V10.4001C1.82488 10.4001 1.59961 10.1748 1.59961 9.89998H-0.400391ZM2.0998 12.4001H9.89942V10.4001H2.0998V12.4001ZM9.89942 12.4001C11.2788 12.4001 12.3996 11.2794 12.3996 9.89998H10.3996C10.3996 10.1748 10.1743 10.4001 9.89942 10.4001V12.4001ZM12.3996 9.89998V4.49998H10.3996V9.89998H12.3996ZM12.3996 4.49998V3.90004H10.3996V4.49998H12.3996ZM12.3996 3.90004V2.99986H10.3996V3.90004H12.3996ZM12.3996 2.99922C12.3987 1.62016 11.2782 0.500275 9.89942 0.500275V2.50028C10.1739 2.50028 10.3994 2.72532 10.3996 3.00051L12.3996 2.99922ZM9.79911 9.89945C9.79911 9.84307 9.84315 9.79909 9.89942 9.79909V11.7991C10.9476 11.7991 11.7991 10.9477 11.7991 9.89945H9.79911ZM9.89942 9.79909H2.0998V11.7991H9.89942V9.79909ZM2.0998 9.79909C2.15515 9.79909 2.19958 9.84268 2.19958 9.89945H0.19958C0.19958 10.9481 1.05144 11.7991 2.0998 11.7991V9.79909ZM2.19958 9.89945V4.49998H0.19958V9.89945H2.19958ZM1.19958 5.49998H10.7991V3.49998H1.19958V5.49998ZM9.79911 4.49998V9.89945H11.7991V4.49998H9.79911ZM10.7991 2.90004H1.19958V4.90004H10.7991V2.90004ZM2.19958 3.90004V2.99986H0.19958V3.90004H2.19958ZM2.19958 2.99986C2.19958 3.05571 2.15553 3.09968 2.0998 3.09968V1.09968C1.05106 1.09968 0.19958 1.95104 0.19958 2.99986H2.19958ZM2.0998 3.09968H3.00002V1.09968H2.0998V3.09968ZM2.00002 2.09968V2.3999H4.00002V2.09968H2.00002ZM4.59946 2.3999V2.10022H2.59946V2.3999H4.59946ZM3.59946 3.10022H8.39922V1.10022H3.59946V3.10022ZM7.39922 2.10022V2.40017H9.39922V2.10022H7.39922ZM9.99919 2.40017V2.10022H7.99919V2.40017H9.99919ZM8.99919 3.10022H9.89942V1.10022H8.99919V3.10022ZM9.89942 3.10022C9.84354 3.10022 9.79911 3.05609 9.79911 2.99986H11.7991C11.7991 1.95066 10.9472 1.10022 9.89942 1.10022V3.10022ZM9.79911 2.99986V3.90004H11.7991V2.99986H9.79911ZM8.69921 3.70016C9.41717 3.70016 9.99919 3.11813 9.99919 2.40017H7.99919C7.99919 2.01356 8.3126 1.70016 8.69921 1.70016V3.70016ZM7.39922 2.40017C7.39922 3.11813 7.98125 3.70016 8.69921 3.70016V1.70016C9.08582 1.70016 9.39922 2.01356 9.39922 2.40017H7.39922ZM3.29974 3.69962C4.01756 3.69962 4.59946 3.11772 4.59946 2.3999H2.59946C2.59946 2.01315 2.91299 1.69962 3.29974 1.69962V3.69962ZM3.29948 -0.399902C2.58151 -0.399902 1.99949 0.182121 1.99949 0.900083H3.99949C3.99949 1.28669 3.68608 1.6001 3.29948 1.6001V-0.399902ZM2.00002 2.3999C2.00002 3.11772 2.58193 3.69962 3.29974 3.69962V1.69962C3.6865 1.69962 4.00002 2.01315 4.00002 2.3999H2.00002ZM4.59946 0.900083C4.59946 0.182122 4.01744 -0.399902 3.29948 -0.399902V1.6001C2.91287 1.6001 2.59946 1.28669 2.59946 0.900083H4.59946ZM8.69921 -0.399902C7.98125 -0.399902 7.39922 0.182121 7.39922 0.900083H9.39922C9.39922 1.28669 9.08582 1.6001 8.69921 1.6001V-0.399902ZM9.99919 0.900083C9.99919 0.182122 9.41717 -0.399902 8.69921 -0.399902V1.6001C8.3126 1.6001 7.99919 1.28669 7.99919 0.900083H9.99919Z" fill="#C0C0EE" mask="url(#path-1-inside-1_3500_139439)"/>
</g>
<defs>
<clipPath id="clip0_3500_139439">
<rect width="12" height="12" fill="white"/>
</clipPath>
</defs>
</svg>
