<svg width="20" height="20" viewBox="0 0 20 20" fill="none" xmlns="http://www.w3.org/2000/svg">
<path fill-rule="evenodd" clip-rule="evenodd" d="M8.88889 10L5.15873 6.26984C4.77174 5.88285 4.59442 5.70552 4.60152 5.53592C4.60752 5.39248 4.74544 5.25456 5 5C5.25456 4.74544 5.39248 4.60752 5.53592 4.60151C5.70553 4.59441 5.88285 4.77174 6.26984 5.15873L10 8.88889L13.7302 5.15873C14.1171 4.77174 14.2945 4.59441 14.4641 4.60151C14.6075 4.60752 14.7454 4.74544 15 5C15.2546 5.25456 15.3925 5.39248 15.3985 5.53592C15.4056 5.70552 15.2283 5.88285 14.8413 6.26984L11.1111 10L14.8413 13.7302C15.2283 14.1171 15.4056 14.2945 15.3985 14.4641C15.3925 14.6075 15.2546 14.7454 15 15C14.7454 15.2546 14.6075 15.3925 14.4641 15.3985C14.2945 15.4056 14.1172 15.2283 13.7302 14.8413L10 11.1111L6.26984 14.8413C5.88285 15.2283 5.70552 15.4056 5.53592 15.3985C5.39248 15.3925 5.25456 15.2546 5 15C4.74544 14.7454 4.60752 14.6075 4.60151 14.4641C4.59441 14.2945 4.77174 14.1171 5.15873 13.7302L8.88889 10Z" fill="white"/>
</svg>
